STARTFONT 2.1
FONT -HP-Sung-Medium-R-Normal--42-420-75-75-C-210-ISO646.1991-IRV
SIZE 42 75 75
FONTBOUNDINGBOX 21 42 0 -6

STARTPROPERTIES 23
FONTNAME_REGISTRY ""
FOUNDRY "HP"
FAMILY_NAME "Sung"
WEIGHT_NAME "Medium"
SLANT "R"
SETWIDTH_NAME "Normal"
ADD_STYLE_NAME ""
PIXEL_SIZE 42
POINT_SIZE 420
RESOLUTION_X 75
RESOLUTION_Y 75
SPACING "C"
AVERAGE_WIDTH 210
CHARSET_REGISTRY "ISO646.1991"
CHARSET_ENCODING "IRV"
COPYRIGHT "Copyright (c) 1994 Hewlett-Packard Company."
_HP_ASXVERSION "@(#) ASX 3.00 $Revision: 13.9 $ sung42a"
WEIGHT 10
X_HEIGHT 36
QUAD_WIDTH 21
DEFAULT_CHAR 32
FONT_DESCENT 6
FONT_ASCENT 36
ENDPROPERTIES

CHARS 256

STARTCHAR iso0
ENCODING 0
SWIDTH 480 0
DWIDTH 21 0
BBX 21 42 0 -6
BITMAP
000000
000000
000000
000000
000000
000000
000000
000000
0E3800
061000
071000
051000
059000
049000
04D000
045000
047000
043000
0E3800
000000
0079C0
003080
003080
003080
003080
003080
003080
003080
003080
001900
000E00
000000
000000
000000
000000
000000
000000
000000
000000
000000
000000
000000
ENDCHAR

STARTCHAR iso1
ENCODING 1
SWIDTH 480 0
DWIDTH 21 0
BBX 21 42 0 -6
BITMAP
000000
000000
000000
000000
000000
000000
000000
000000
03C800
042800
0C1800
0C0800
060000
01C000
007000
081800
0C1800
0C1000
0BE000
000000
007BC0
003180
003180
003180
003180
003F80
003180
003180
003180
003180
007BC0
000000
000000
000000
000000
000000
000000
000000
000000
000000
000000
000000
ENDCHAR

STARTCHAR iso2
ENCODING 2
SWIDTH 480 0
DWIDTH 21 0
BBX 21 42 0 -6
BITMAP
000000
000000
000000
000000
000000
000000
000000
000000
03C800
042800
0C1800
0C0800
060000
01C000
007000
081800
0C1800
0C1000
0BE000
000000
0078C0
003040
001880
001900
000E00
000400
000E00
001300
002300
004180
0063C0
000000
000000
000000
000000
000000
000000
000000
000000
000000
000000
000000
ENDCHAR

STARTCHAR iso3
ENCODING 3
SWIDTH 480 0
DWIDTH 21 0
BBX 21 42 0 -6
BITMAP
000000
000000
000000
000000
000000
000000
000000
000000
0FF800
061800
060800
060000
062000
07E000
062000
060000
060800
061800
0FF800
000000
0078C0
003040
001880
001900
000E00
000400
000E00
001300
002300
004180
0063C0
000000
000000
000000
000000
000000
000000
000000
000000
000000
000000
000000
ENDCHAR

STARTCHAR iso4
ENCODING 4
SWIDTH 480 0
DWIDTH 21 0
BBX 21 42 0 -6
BITMAP
000000
000000
000000
000000
000000
000000
000000
000000
0FF800
061800
060800
060000
062000
07E000
062000
060000
060800
061800
0FF800
000000
00FFC0
00CCC0
008C40
000C00
000C00
000C00
000C00
000C00
000C00
000C00
001E00
000000
000000
000000
000000
000000
000000
000000
000000
000000
000000
000000
ENDCHAR

STARTCHAR iso5
ENCODING 5
SWIDTH 480 0
DWIDTH 21 0
BBX 21 42 0 -6
BITMAP
000000
000000
000000
000000
000000
000000
000000
000000
0FF800
061800
060800
060000
062000
07E000
062000
060000
060800
061800
0FF800
000000
001F00
003180
0060C0
0060C0
0060C0
0060C0
006CC0
0072C0
003380
001F00
000140
000080
000000
000000
000000
000000
000000
000000
000000
000000
000000
000000
ENDCHAR

STARTCHAR iso6
ENCODING 6
SWIDTH 480 0
DWIDTH 21 0
BBX 21 42 0 -6
BITMAP
000000
000000
000000
000000
000000
000000
000000
000000
008000
01C000
01C000
01C000
026000
026000
026000
07F000
043000
043000
0E7800
000000
0079C0
003080
003100
003200
003C00
003C00
003600
003300
003180
0030C0
0079E0
000000
000000
000000
000000
000000
000000
000000
000000
000000
000000
000000
ENDCHAR

STARTCHAR iso7
ENCODING 7
SWIDTH 480 0
DWIDTH 21 0
BBX 21 42 0 -6
BITMAP
000000
000000
000000
000000
000000
000000
000000
000000
000000
007000
00D800
008800
018C00
018C00
010400
010400
030600
030600
020200
020200
020200
020200
020200
020200
060300
07FF00
008800
008800
00D800
007000
000000
000000
000000
000000
000000
000000
000000
000000
000000
000000
000000
000000
ENDCHAR

STARTCHAR iso8
ENCODING 8
SWIDTH 480 0
DWIDTH 21 0
BBX 21 42 0 -6
BITMAP
000000
000000
000000
000000
000000
000000
000000
000000
0FE000
063000
061800
061800
061000
07E000
061000
061800
061800
063000
0FE000
000000
001E40
002140
0060C0
006040
003000
000E00
000380
0040C0
0060C0
006080
005F00
000000
000000
000000
000000
000000
000000
000000
000000
000000
000000
000000
ENDCHAR

STARTCHAR iso9
ENCODING 9
SWIDTH 480 0
DWIDTH 21 0
BBX 21 42 0 -6
BITMAP
000000
000000
000000
000000
000000
000000
000000
000000
0F7800
063000
063000
063000
063000
07F000
063000
063000
063000
063000
0F7800
000000
00FFC0
00CCC0
008C40
000C00
000C00
000C00
000C00
000C00
000C00
000C00
001E00
000000
000000
000000
000000
000000
000000
000000
000000
000000
000000
000000
ENDCHAR

STARTCHAR isoA
ENCODING 10
SWIDTH 480 0
DWIDTH 21 0
BBX 21 42 0 -6
BITMAP
000000
000000
000000
000000
000000
000000
000000
000000
0F0000
060000
060000
060000
060000
060000
060000
060800
060800
061800
0FF800
000000
007FC0
0030C0
003040
003000
003100
003F00
003100
003000
003000
003000
007800
000000
000000
000000
000000
000000
000000
000000
000000
000000
000000
000000
ENDCHAR

STARTCHAR isoB
ENCODING 11
SWIDTH 480 0
DWIDTH 21 0
BBX 21 42 0 -6
BITMAP
000000
000000
000000
000000
000000
000000
000000
000000
0F3800
061000
061000
061000
032000
032000
032000
01C000
01C000
01C000
008000
000000
00FFC0
00CCC0
008C40
000C00
000C00
000C00
000C00
000C00
000C00
000C00
001E00
000000
000000
000000
000000
000000
000000
000000
000000
000000
000000
000000
ENDCHAR

STARTCHAR isoC
ENCODING 12
SWIDTH 480 0
DWIDTH 21 0
BBX 21 42 0 -6
BITMAP
000000
000000
000000
000000
000000
000000
000000
000000
0FF800
061800
060800
060000
062000
07E000
062000
060000
060000
060000
0F0000
000000
007FC0
0030C0
003040
003000
003100
003F00
003100
003000
003000
003000
007800
000000
000000
000000
000000
000000
000000
000000
000000
000000
000000
000000
ENDCHAR

STARTCHAR isoD
ENCODING 13
SWIDTH 480 0
DWIDTH 21 0
BBX 21 42 0 -6
BITMAP
000000
000000
000000
000000
000000
000000
000000
000000
03C800
062800
061800
0C0800
0C0000
0C0000
0C0000
0C0800
060800
061000
03E000
000000
00FE00
006300
006180
006180
006300
007E00
006C00
006600
006300
006180
00F3C0
000000
000000
000000
000000
000000
000000
000000
000000
000000
000000
000000
ENDCHAR

STARTCHAR isoE
ENCODING 14
SWIDTH 480 0
DWIDTH 21 0
BBX 21 42 0 -6
BITMAP
000000
000000
000000
000000
000000
000000
000000
000000
03C800
042800
0C1800
0C0800
060000
01C000
007000
081800
0C1800
0C1000
0BE000
000000
000E00
003180
002080
0060C0
0060C0
0060C0
0060C0
0060C0
002080
003180
000E00
000000
000000
000000
000000
000000
000000
000000
000000
000000
000000
000000
ENDCHAR

STARTCHAR isoF
ENCODING 15
SWIDTH 480 0
DWIDTH 21 0
BBX 21 42 0 -6
BITMAP
000000
000000
000000
000000
000000
000000
000000
000000
03C800
042800
0C1800
0C0800
060000
01C000
007000
081800
0C1800
0C1000
0BE000
000000
001E00
000C00
000C00
000C00
000C00
000C00
000C00
000C00
000C00
000C00
001E00
000000
000000
000000
000000
000000
000000
000000
000000
000000
000000
000000
ENDCHAR

STARTCHAR iso10
ENCODING 16
SWIDTH 480 0
DWIDTH 21 0
BBX 21 42 0 -6
BITMAP
000000
000000
000000
000000
000000
000000
000000
000000
0FE000
063000
061800
061800
061800
061800
061800
061800
061800
063000
0FE000
000000
007800
003000
003000
003000
003000
003000
003000
003000
003040
0030C0
007FC0
000000
000000
000000
000000
000000
000000
000000
000000
000000
000000
000000
ENDCHAR

STARTCHAR iso11
ENCODING 17
SWIDTH 480 0
DWIDTH 21 0
BBX 21 42 0 -6
BITMAP
000000
000000
000000
000000
000000
000000
000000
000000
0FE000
063000
061800
061800
061800
061800
061800
061800
061800
063000
0FE000
000000
000600
000E00
001E00
000600
000600
000600
000600
000600
000600
000600
001F80
000000
000000
000000
000000
000000
000000
000000
000000
000000
000000
000000
ENDCHAR

STARTCHAR iso12
ENCODING 18
SWIDTH 480 0
DWIDTH 21 0
BBX 21 42 0 -6
BITMAP
000000
000000
000000
000000
000000
000000
000000
000000
0FE000
063000
061800
061800
061800
061800
061800
061800
061800
063000
0FE000
000000
001F00
003180
0060C0
0060C0
003180
000300
000C00
003000
006040
007FC0
007FC0
000000
000000
000000
000000
000000
000000
000000
000000
000000
000000
000000
ENDCHAR

STARTCHAR iso13
ENCODING 19
SWIDTH 480 0
DWIDTH 21 0
BBX 21 42 0 -6
BITMAP
000000
000000
000000
000000
000000
000000
000000
000000
0FE000
063000
061800
061800
061800
061800
061800
061800
061800
063000
0FE000
000000
001F00
003180
0060C0
0060C0
000180
001F00
000180
0060C0
0060C0
003180
001F00
000000
000000
000000
000000
000000
000000
000000
000000
000000
000000
000000
ENDCHAR

STARTCHAR iso14
ENCODING 20
SWIDTH 480 0
DWIDTH 21 0
BBX 21 42 0 -6
BITMAP
000000
000000
000000
000000
000000
000000
000000
000000
0FE000
063000
061800
061800
061800
061800
061800
061800
061800
063000
0FE000
000000
000300
000700
000F00
001B00
003300
006300
006300
007F80
000300
000300
000780
000000
000000
000000
000000
000000
000000
000000
000000
000000
000000
000000
ENDCHAR

STARTCHAR iso15
ENCODING 21
SWIDTH 480 0
DWIDTH 21 0
BBX 21 42 0 -6
BITMAP
000000
000000
000000
000000
000000
000000
000000
000000
0E3800
061000
071000
051000
059000
049000
04D000
045000
047000
043000
0E3800
000000
0079C0
003080
003100
003200
003C00
003C00
003600
003300
003180
0030C0
0079E0
000000
000000
000000
000000
000000
000000
000000
000000
000000
000000
000000
ENDCHAR

STARTCHAR iso16
ENCODING 22
SWIDTH 480 0
DWIDTH 21 0
BBX 21 42 0 -6
BITMAP
000000
000000
000000
000000
000000
000000
000000
000000
03C800
042800
0C1800
0C0800
060000
01C000
007000
081800
0C1800
0C1000
0BE000
000000
0079C0
003080
003080
001900
001900
000F00
000E00
000600
000600
000600
000F00
000000
000000
000000
000000
000000
000000
000000
000000
000000
000000
000000
ENDCHAR

STARTCHAR iso17
ENCODING 23
SWIDTH 480 0
DWIDTH 21 0
BBX 21 42 0 -6
BITMAP
000000
000000
000000
000000
000000
000000
000000
000000
0FF800
061800
060800
060000
062000
07E000
062000
060000
060800
061800
0FF800
000000
007F00
003180
0030C0
0030C0
003080
003F00
003080
0030C0
0030C0
003180
007F00
000000
000000
000000
000000
000000
000000
000000
000000
000000
000000
000000
ENDCHAR

STARTCHAR iso18
ENCODING 24
SWIDTH 480 0
DWIDTH 21 0
BBX 21 42 0 -6
BITMAP
000000
000000
000000
000000
000000
000000
000000
000000
03C800
062800
061800
0C0800
0C0000
0C0000
0C0000
0C0800
060800
061000
03E000
000000
0071C0
003080
003880
002880
002C80
002480
002680
002280
002380
002180
0071C0
000000
000000
000000
000000
000000
000000
000000
000000
000000
000000
000000
ENDCHAR

STARTCHAR iso19
ENCODING 25
SWIDTH 480 0
DWIDTH 21 0
BBX 21 42 0 -6
BITMAP
000000
000000
000000
000000
000000
000000
000000
000000
0FF800
061800
060800
060000
062000
07E000
062000
060000
060800
061800
0FF800
000000
0071C0
003180
003180
003B80
002B80
002F80
002580
002580
002180
002180
0073C0
000000
000000
000000
000000
000000
000000
000000
000000
000000
000000
000000
ENDCHAR

STARTCHAR iso1A
ENCODING 26
SWIDTH 480 0
DWIDTH 21 0
BBX 21 42 0 -6
BITMAP
000000
000000
000000
000000
000000
000000
000000
000000
03C800
042800
0C1800
0C0800
060000
01C000
007000
081800
0C1800
0C1000
0BE000
000000
007F00
003180
0030C0
0030C0
003080
003F00
003080
0030C0
0030C0
003180
007F00
000000
000000
000000
000000
000000
000000
000000
000000
000000
000000
000000
ENDCHAR

STARTCHAR iso1B
ENCODING 27
SWIDTH 480 0
DWIDTH 21 0
BBX 21 42 0 -6
BITMAP
000000
000000
000000
000000
000000
000000
000000
000000
0FF800
061800
060800
060000
062000
07E000
062000
060000
060800
061800
0FF800
000000
001E40
003140
0030C0
006040
006000
006000
006000
006040
003040
003080
001F00
000000
000000
000000
000000
000000
000000
000000
000000
000000
000000
000000
ENDCHAR

STARTCHAR iso1C
ENCODING 28
SWIDTH 480 0
DWIDTH 21 0
BBX 21 42 0 -6
BITMAP
000000
000000
000000
000000
000000
000000
000000
000000
0FF800
061800
060800
060000
062000
07E000
062000
060000
060000
060000
0F0000
000000
001E40
002140
0060C0
006040
003000
000E00
000380
0040C0
0060C0
006080
005F00
000000
000000
000000
000000
000000
000000
000000
000000
000000
000000
000000
ENDCHAR

STARTCHAR iso1D
ENCODING 29
SWIDTH 480 0
DWIDTH 21 0
BBX 21 42 0 -6
BITMAP
000000
000000
000000
000000
000000
000000
000000
000000
03C800
062800
061800
0C0800
0C0000
0C0000
0C3800
0C1800
061800
062800
03C800
000000
001E40
002140
0060C0
006040
003000
000E00
000380
0040C0
0060C0
006080
005F00
000000
000000
000000
000000
000000
000000
000000
000000
000000
000000
000000
ENDCHAR

STARTCHAR iso1E
ENCODING 30
SWIDTH 480 0
DWIDTH 21 0
BBX 21 42 0 -6
BITMAP
000000
000000
000000
000000
000000
000000
000000
000000
0FE000
063000
061800
061800
063000
07E000
06C000
066000
063000
061800
0F3C00
000000
001E40
002140
0060C0
006040
003000
000E00
000380
0040C0
0060C0
006080
005F00
000000
000000
000000
000000
000000
000000
000000
000000
000000
000000
000000
ENDCHAR

STARTCHAR iso1F
ENCODING 31
SWIDTH 480 0
DWIDTH 21 0
BBX 21 42 0 -6
BITMAP
000000
000000
000000
000000
000000
000000
000000
000000
0F3800
061000
061000
061000
061000
061000
061000
061000
061000
032000
01C000
000000
001E40
002140
0060C0
006040
003000
000E00
000380
0040C0
0060C0
006080
005F00
000000
000000
000000
000000
000000
000000
000000
000000
000000
000000
000000
ENDCHAR

STARTCHAR iso20
ENCODING 32
SWIDTH 480 0
DWIDTH 21 0
BBX 21 42 0 -6
BITMAP
000000
000000
000000
000000
000000
000000
000000
000000
000000
000000
000000
000000
000000
000000
000000
000000
000000
000000
000000
000000
000000
000000
000000
000000
000000
000000
000000
000000
000000
000000
000000
000000
000000
000000
000000
000000
000000
000000
000000
000000
000000
000000
ENDCHAR

STARTCHAR iso21
ENCODING 33
SWIDTH 480 0
DWIDTH 21 0
BBX 21 42 0 -6
BITMAP
000000
000000
000000
000000
000000
000000
000000
000000
002000
007000
007000
007000
007000
007000
007000
007000
007000
007000
007000
007000
007000
007000
002000
002000
002000
000000
000000
002000
007000
007000
002000
000000
000000
000000
000000
000000
000000
000000
000000
000000
000000
000000
ENDCHAR

STARTCHAR iso22
ENCODING 34
SWIDTH 480 0
DWIDTH 21 0
BBX 21 42 0 -6
BITMAP
000000
000000
000000
000000
000000
000000
000000
018600
03CF00
018600
018600
010400
020800
000000
000000
000000
000000
000000
000000
000000
000000
000000
000000
000000
000000
000000
000000
000000
000000
000000
000000
000000
000000
000000
000000
000000
000000
000000
000000
000000
000000
000000
ENDCHAR

STARTCHAR iso23
ENCODING 35
SWIDTH 480 0
DWIDTH 21 0
BBX 21 42 0 -6
BITMAP
000000
000000
000000
000000
000000
000000
000000
000000
00CC00
00CC00
00CC00
00CC00
00CF00
00FF00
03FC00
03CC00
00CC00
00CC00
00CC00
00CC00
00CF00
00FF00
03FC00
03CC00
00CC00
00CC00
00CC00
00CC00
00CC00
00CC00
00CC00
000000
000000
000000
000000
000000
000000
000000
000000
000000
000000
000000
ENDCHAR

STARTCHAR iso24
ENCODING 36
SWIDTH 480 0
DWIDTH 21 0
BBX 21 42 0 -6
BITMAP
000000
000000
000000
000000
000000
000000
000000
003000
003000
00FC00
013200
023100
023100
023300
033300
01B000
01F000
00F000
007800
003C00
003E00
003600
003300
003100
033100
033100
023100
023100
013200
00FC00
003000
003000
000000
000000
000000
000000
000000
000000
000000
000000
000000
000000
ENDCHAR

STARTCHAR iso25
ENCODING 37
SWIDTH 480 0
DWIDTH 21 0
BBX 21 42 0 -6
BITMAP
000000
000000
000000
000000
000000
000000
000000
000000
038100
06C200
06C200
06C400
06C400
06C800
06C800
06D000
06D000
039000
002000
002000
004E00
005B00
005B00
009B00
009B00
011B00
011B00
021B00
021B00
040E00
000000
000000
000000
000000
000000
000000
000000
000000
000000
000000
000000
000000
ENDCHAR

STARTCHAR iso26
ENCODING 38
SWIDTH 480 0
DWIDTH 21 0
BBX 21 42 0 -6
BITMAP
000000
000000
000000
000000
000000
000000
000000
000000
00C000
012000
032000
032000
032000
032000
01C000
00C000
00E380
01E100
016100
033100
031100
021900
061900
060900
060D00
060D00
060E00
060600
030E00
031B40
01F180
000000
000000
000000
000000
000000
000000
000000
000000
000000
000000
000000
ENDCHAR

STARTCHAR iso27
ENCODING 39
SWIDTH 480 0
DWIDTH 21 0
BBX 21 42 0 -6
BITMAP
000000
000000
000000
000000
000000
000000
000000
00C000
01E000
00C000
00C000
008000
010000
000000
000000
000000
000000
000000
000000
000000
000000
000000
000000
000000
000000
000000
000000
000000
000000
000000
000000
000000
000000
000000
000000
000000
000000
000000
000000
000000
000000
000000
ENDCHAR

STARTCHAR iso28
ENCODING 40
SWIDTH 480 0
DWIDTH 21 0
BBX 21 42 0 -6
BITMAP
000000
000000
000000
000000
000000
000000
000000
000400
000800
001800
001000
003000
003000
002000
006000
006000
006000
006000
006000
006000
006000
006000
006000
006000
002000
003000
003000
001000
001800
000800
000400
000000
000000
000000
000000
000000
000000
000000
000000
000000
000000
000000
ENDCHAR

STARTCHAR iso29
ENCODING 41
SWIDTH 480 0
DWIDTH 21 0
BBX 21 42 0 -6
BITMAP
000000
000000
000000
000000
000000
000000
000000
010000
008000
00C000
004000
006000
006000
002000
003000
003000
003000
003000
003000
003000
003000
003000
003000
003000
002000
006000
006000
004000
00C000
008000
010000
000000
000000
000000
000000
000000
000000
000000
000000
000000
000000
000000
ENDCHAR

STARTCHAR iso2A
ENCODING 42
SWIDTH 480 0
DWIDTH 21 0
BBX 21 42 0 -6
BITMAP
000000
000000
000000
000000
000000
000000
000000
000000
000000
000000
000000
000000
000000
003000
003000
063180
073380
03B700
00FC00
003000
00FC00
03B700
073380
063180
003000
003000
000000
000000
000000
000000
000000
000000
000000
000000
000000
000000
000000
000000
000000
000000
000000
000000
ENDCHAR

STARTCHAR iso2B
ENCODING 43
SWIDTH 480 0
DWIDTH 21 0
BBX 21 42 0 -6
BITMAP
000000
000000
000000
000000
000000
000000
000000
000000
000000
000000
000000
000000
000000
003000
003000
003000
003000
003000
003000
07FF80
003000
003000
003000
003000
003000
003000
000000
000000
000000
000000
000000
000000
000000
000000
000000
000000
000000
000000
000000
000000
000000
000000
ENDCHAR

STARTCHAR iso2C
ENCODING 44
SWIDTH 480 0
DWIDTH 21 0
BBX 21 42 0 -6
BITMAP
000000
000000
000000
000000
000000
000000
000000
000000
000000
000000
000000
000000
000000
000000
000000
000000
000000
000000
000000
000000
000000
000000
000000
000000
000000
000000
000000
000000
000000
018000
03C000
018000
018000
030000
000000
000000
000000
000000
000000
000000
000000
000000
ENDCHAR

STARTCHAR iso2D
ENCODING 45
SWIDTH 480 0
DWIDTH 21 0
BBX 21 42 0 -6
BITMAP
000000
000000
000000
000000
000000
000000
000000
000000
000000
000000
000000
000000
000000
000000
000000
000000
000000
000000
000000
000000
000000
000000
03FF00
000000
000000
000000
000000
000000
000000
000000
000000
000000
000000
000000
000000
000000
000000
000000
000000
000000
000000
000000
ENDCHAR

STARTCHAR iso2E
ENCODING 46
SWIDTH 480 0
DWIDTH 21 0
BBX 21 42 0 -6
BITMAP
000000
000000
000000
000000
000000
000000
000000
000000
000000
000000
000000
000000
000000
000000
000000
000000
000000
000000
000000
000000
000000
000000
000000
000000
000000
000000
000000
000000
000000
018000
03C000
018000
000000
000000
000000
000000
000000
000000
000000
000000
000000
000000
ENDCHAR

STARTCHAR iso2F
ENCODING 47
SWIDTH 480 0
DWIDTH 21 0
BBX 21 42 0 -6
BITMAP
000000
000000
000000
000000
000000
000000
000000
000000
000180
000100
000300
000200
000600
000400
000C00
000800
001800
001000
003000
002000
006000
004000
00C000
008000
018000
010000
030000
020000
060000
040000
000000
000000
000000
000000
000000
000000
000000
000000
000000
000000
000000
000000
ENDCHAR

STARTCHAR iso30
ENCODING 48
SWIDTH 480 0
DWIDTH 21 0
BBX 21 42 0 -6
BITMAP
000000
000000
000000
000000
000000
000000
000000
000000
007000
018C00
018C00
030600
060300
060300
060300
060300
060300
060300
060300
060300
060300
060300
060300
060300
060300
060300
060300
030600
018C00
018C00
007000
000000
000000
000000
000000
000000
000000
000000
000000
000000
000000
000000
ENDCHAR

STARTCHAR iso31
ENCODING 49
SWIDTH 480 0
DWIDTH 21 0
BBX 21 42 0 -6
BITMAP
000000
000000
000000
000000
000000
000000
000000
000000
003000
003000
007000
01F000
003000
003000
003000
003000
003000
003000
003000
003000
003000
003000
003000
003000
003000
003000
003000
003000
003000
003000
01FE00
000000
000000
000000
000000
000000
000000
000000
000000
000000
000000
000000
ENDCHAR

STARTCHAR iso32
ENCODING 50
SWIDTH 480 0
DWIDTH 21 0
BBX 21 42 0 -6
BITMAP
000000
000000
000000
000000
000000
000000
000000
000000
00F800
018C00
030600
030600
060300
060300
060300
070300
030300
000600
000600
000C00
001800
003000
006000
00C000
018000
010000
030000
020100
060100
07FF00
07FF00
000000
000000
000000
000000
000000
000000
000000
000000
000000
000000
000000
ENDCHAR

STARTCHAR iso33
ENCODING 51
SWIDTH 480 0
DWIDTH 21 0
BBX 21 42 0 -6
BITMAP
000000
000000
000000
000000
000000
000000
000000
000000
007000
019C00
030600
060300
060300
060300
000300
000600
000600
000C00
00F800
00F000
000C00
000600
000300
000300
000300
000300
060300
060300
060600
030E00
00F800
000000
000000
000000
000000
000000
000000
000000
000000
000000
000000
000000
ENDCHAR

STARTCHAR iso34
ENCODING 52
SWIDTH 480 0
DWIDTH 21 0
BBX 21 42 0 -6
BITMAP
000000
000000
000000
000000
000000
000000
000000
000000
000C00
000C00
001C00
001C00
003C00
002C00
002C00
006C00
004C00
00CC00
008C00
018C00
010C00
030C00
030C00
020C00
060C00
07FF00
000C00
000C00
000C00
000C00
003F00
000000
000000
000000
000000
000000
000000
000000
000000
000000
000000
000000
ENDCHAR

STARTCHAR iso35
ENCODING 53
SWIDTH 480 0
DWIDTH 21 0
BBX 21 42 0 -6
BITMAP
000000
000000
000000
000000
000000
000000
000000
000000
07FF00
07FE00
040000
040000
040000
040000
040000
040000
040000
04F800
078C00
070600
040700
000300
000300
000300
000300
000300
000300
060700
060600
031C00
01F000
000000
000000
000000
000000
000000
000000
000000
000000
000000
000000
000000
ENDCHAR

STARTCHAR iso36
ENCODING 54
SWIDTH 480 0
DWIDTH 21 0
BBX 21 42 0 -6
BITMAP
000000
000000
000000
000000
000000
000000
000000
000000
007000
018C00
030600
030300
060300
060300
060000
060000
060000
060000
067000
078C00
070600
060600
060300
060300
060300
060300
060300
030600
030600
018C00
007000
000000
000000
000000
000000
000000
000000
000000
000000
000000
000000
000000
ENDCHAR

STARTCHAR iso37
ENCODING 55
SWIDTH 480 0
DWIDTH 21 0
BBX 21 42 0 -6
BITMAP
000000
000000
000000
000000
000000
000000
000000
000000
07FF00
07FF00
040300
040300
040600
000400
000C00
000800
001800
001000
003000
002000
006000
006000
004000
00C000
00C000
00C000
00C000
00C000
00C000
00C000
00C000
000000
000000
000000
000000
000000
000000
000000
000000
000000
000000
000000
ENDCHAR

STARTCHAR iso38
ENCODING 56
SWIDTH 480 0
DWIDTH 21 0
BBX 21 42 0 -6
BITMAP
000000
000000
000000
000000
000000
000000
000000
000000
007000
018C00
030600
030600
060300
060300
060300
060300
060300
030600
018C00
007000
018C00
030600
030600
060300
060300
060300
060300
060300
030600
018C00
007000
000000
000000
000000
000000
000000
000000
000000
000000
000000
000000
000000
ENDCHAR

STARTCHAR iso39
ENCODING 57
SWIDTH 480 0
DWIDTH 21 0
BBX 21 42 0 -6
BITMAP
000000
000000
000000
000000
000000
000000
000000
000000
007000
018C00
030600
030600
060300
060300
060300
060300
060300
030300
030700
018F00
007300
000300
000300
000300
000300
060300
060300
060600
030600
018C00
007000
000000
000000
000000
000000
000000
000000
000000
000000
000000
000000
000000
ENDCHAR

STARTCHAR iso3A
ENCODING 58
SWIDTH 480 0
DWIDTH 21 0
BBX 21 42 0 -6
BITMAP
000000
000000
000000
000000
000000
000000
000000
000000
000000
000000
000000
000000
000000
000000
000000
003000
007800
003000
000000
000000
000000
000000
000000
000000
000000
000000
000000
000000
003000
007800
003000
000000
000000
000000
000000
000000
000000
000000
000000
000000
000000
000000
ENDCHAR

STARTCHAR iso3B
ENCODING 59
SWIDTH 480 0
DWIDTH 21 0
BBX 21 42 0 -6
BITMAP
000000
000000
000000
000000
000000
000000
000000
000000
000000
000000
000000
000000
000000
000000
000000
003000
007800
003000
000000
000000
000000
000000
000000
000000
000000
000000
000000
000000
003000
007800
003000
003000
006000
000000
000000
000000
000000
000000
000000
000000
000000
000000
ENDCHAR

STARTCHAR iso3C
ENCODING 60
SWIDTH 480 0
DWIDTH 21 0
BBX 21 42 0 -6
BITMAP
000000
000000
000000
000000
000000
000000
000000
000000
000000
000000
000000
000300
000600
000C00
001800
003000
006000
00C000
018000
030000
018000
00C000
006000
003000
001800
000C00
000600
000300
000000
000000
000000
000000
000000
000000
000000
000000
000000
000000
000000
000000
000000
000000
ENDCHAR

STARTCHAR iso3D
ENCODING 61
SWIDTH 480 0
DWIDTH 21 0
BBX 21 42 0 -6
BITMAP
000000
000000
000000
000000
000000
000000
000000
000000
000000
000000
000000
000000
000000
000000
000000
000000
000000
03FF00
000000
000000
000000
000000
000000
000000
000000
03FF00
000000
000000
000000
000000
000000
000000
000000
000000
000000
000000
000000
000000
000000
000000
000000
000000
ENDCHAR

STARTCHAR iso3E
ENCODING 62
SWIDTH 480 0
DWIDTH 21 0
BBX 21 42 0 -6
BITMAP
000000
000000
000000
000000
000000
000000
000000
000000
000000
000000
000000
030000
018000
00C000
006000
003000
001800
000C00
000600
000300
000600
000C00
001800
003000
006000
00C000
018000
030000
000000
000000
000000
000000
000000
000000
000000
000000
000000
000000
000000
000000
000000
000000
ENDCHAR

STARTCHAR iso3F
ENCODING 63
SWIDTH 480 0
DWIDTH 21 0
BBX 21 42 0 -6
BITMAP
000000
000000
000000
000000
000000
000000
000000
000000
007000
018C00
030600
060300
060300
060300
060300
060300
060300
030600
000600
000C00
001800
001000
002000
002000
002000
000000
000000
002000
007000
007000
002000
000000
000000
000000
000000
000000
000000
000000
000000
000000
000000
000000
ENDCHAR

STARTCHAR iso40
ENCODING 64
SWIDTH 480 0
DWIDTH 21 0
BBX 21 42 0 -6
BITMAP
000000
000000
000000
000000
000000
000000
000000
000000
007800
008400
018600
030300
020100
027100
02CD00
02CD00
02CD00
02CD00
02CD00
02CD00
02CD00
02CD00
02CD00
02CD00
02CD00
02CE00
027600
030000
018100
008600
007800
000000
000000
000000
000000
000000
000000
000000
000000
000000
000000
000000
ENDCHAR

STARTCHAR iso41
ENCODING 65
SWIDTH 480 0
DWIDTH 21 0
BBX 21 42 0 -6
BITMAP
000000
000000
000000
000000
000000
000000
000000
000000
003000
003000
003000
005800
005800
005800
005800
008C00
008C00
008C00
008C00
008C00
010600
010600
010600
010600
01FE00
020300
020300
020300
020300
020300
070780
000000
000000
000000
000000
000000
000000
000000
000000
000000
000000
000000
ENDCHAR

STARTCHAR iso42
ENCODING 66
SWIDTH 480 0
DWIDTH 21 0
BBX 21 42 0 -6
BITMAP
000000
000000
000000
000000
000000
000000
000000
000000
07F000
031800
030C00
030600
030600
030600
030600
030600
030C00
031800
03F000
030C00
030600
030300
030300
030300
030300
030300
030300
030300
030600
030C00
07F000
000000
000000
000000
000000
000000
000000
000000
000000
000000
000000
000000
ENDCHAR

STARTCHAR iso43
ENCODING 67
SWIDTH 480 0
DWIDTH 21 0
BBX 21 42 0 -6
BITMAP
000000
000000
000000
000000
000000
000000
000000
000000
007100
018D00
030700
030700
060300
060300
060100
060000
060000
060000
060000
060000
060000
060000
060000
060000
060100
060100
060300
030200
030600
018C00
007000
000000
000000
000000
000000
000000
000000
000000
000000
000000
000000
000000
ENDCHAR

STARTCHAR iso44
ENCODING 68
SWIDTH 480 0
DWIDTH 21 0
BBX 21 42 0 -6
BITMAP
000000
000000
000000
000000
000000
000000
000000
000000
07E000
031800
030C00
030600
030600
030300
030300
030300
030300
030300
030300
030300
030300
030300
030300
030300
030300
030300
030600
030600
030C00
031800
07E000
000000
000000
000000
000000
000000
000000
000000
000000
000000
000000
000000
ENDCHAR

STARTCHAR iso45
ENCODING 69
SWIDTH 480 0
DWIDTH 21 0
BBX 21 42 0 -6
BITMAP
000000
000000
000000
000000
000000
000000
000000
000000
07FF00
030300
030100
030100
030000
030000
030000
030000
030800
030800
031800
03F800
031800
030800
030800
030000
030000
030000
030000
030100
030100
030300
07FF00
000000
000000
000000
000000
000000
000000
000000
000000
000000
000000
000000
ENDCHAR

STARTCHAR iso46
ENCODING 70
SWIDTH 480 0
DWIDTH 21 0
BBX 21 42 0 -6
BITMAP
000000
000000
000000
000000
000000
000000
000000
000000
07FF00
030300
030100
030100
030000
030000
030000
030000
030800
030800
031800
03F800
031800
030800
030800
030000
030000
030000
030000
030000
030000
030000
07C000
000000
000000
000000
000000
000000
000000
000000
000000
000000
000000
000000
ENDCHAR

STARTCHAR iso47
ENCODING 71
SWIDTH 480 0
DWIDTH 21 0
BBX 21 42 0 -6
BITMAP
000000
000000
000000
000000
000000
000000
000000
000000
00F100
018D00
030700
030300
060300
060100
060000
060000
060000
060000
060000
060000
060000
060000
060000
060780
060300
060300
060300
030300
030700
018D00
00F100
000000
000000
000000
000000
000000
000000
000000
000000
000000
000000
000000
ENDCHAR

STARTCHAR iso48
ENCODING 72
SWIDTH 480 0
DWIDTH 21 0
BBX 21 42 0 -6
BITMAP
000000
000000
000000
000000
000000
000000
000000
000000
078780
030300
030300
030300
030300
030300
030300
030300
030300
030300
030300
03FF00
030300
030300
030300
030300
030300
030300
030300
030300
030300
030300
078780
000000
000000
000000
000000
000000
000000
000000
000000
000000
000000
000000
ENDCHAR

STARTCHAR iso49
ENCODING 73
SWIDTH 480 0
DWIDTH 21 0
BBX 21 42 0 -6
BITMAP
000000
000000
000000
000000
000000
000000
000000
000000
00FC00
003000
003000
003000
003000
003000
003000
003000
003000
003000
003000
003000
003000
003000
003000
003000
003000
003000
003000
003000
003000
003000
00FC00
000000
000000
000000
000000
000000
000000
000000
000000
000000
000000
000000
ENDCHAR

STARTCHAR iso4A
ENCODING 74
SWIDTH 480 0
DWIDTH 21 0
BBX 21 42 0 -6
BITMAP
000000
000000
000000
000000
000000
000000
000000
000000
007E00
001800
001800
001800
001800
001800
001800
001800
001800
001800
001800
001800
001800
001800
001800
001800
001800
001800
001800
031800
031800
011000
00E000
000000
000000
000000
000000
000000
000000
000000
000000
000000
000000
000000
ENDCHAR

STARTCHAR iso4B
ENCODING 75
SWIDTH 480 0
DWIDTH 21 0
BBX 21 42 0 -6
BITMAP
000000
000000
000000
000000
000000
000000
000000
000000
078F00
030600
030400
030C00
030800
031800
031000
033000
032000
036000
03C000
03C000
03C000
036000
036000
033000
033000
031800
031800
030C00
030C00
030600
078F00
000000
000000
000000
000000
000000
000000
000000
000000
000000
000000
000000
ENDCHAR

STARTCHAR iso4C
ENCODING 76
SWIDTH 480 0
DWIDTH 21 0
BBX 21 42 0 -6
BITMAP
000000
000000
000000
000000
000000
000000
000000
000000
078000
030000
030000
030000
030000
030000
030000
030000
030000
030000
030000
030000
030000
030000
030000
030000
030000
030000
030000
030100
030100
030300
07FF00
000000
000000
000000
000000
000000
000000
000000
000000
000000
000000
000000
ENDCHAR

STARTCHAR iso4D
ENCODING 77
SWIDTH 480 0
DWIDTH 21 0
BBX 21 42 0 -6
BITMAP
000000
000000
000000
000000
000000
000000
000000
000000
070380
030300
030300
030300
038700
038700
038700
038700
02CB00
02CB00
02CB00
02CB00
027300
027300
027300
027300
022300
022300
022300
020300
020300
020300
070780
000000
000000
000000
000000
000000
000000
000000
000000
000000
000000
000000
ENDCHAR

STARTCHAR iso4E
ENCODING 78
SWIDTH 480 0
DWIDTH 21 0
BBX 21 42 0 -6
BITMAP
000000
000000
000000
000000
000000
000000
000000
000000
070380
030100
038100
038100
038100
02C100
02C100
02C100
026100
026100
026100
023100
021900
021900
021900
020D00
020D00
020F00
020700
020700
020700
020300
070380
000000
000000
000000
000000
000000
000000
000000
000000
000000
000000
000000
ENDCHAR

STARTCHAR iso4F
ENCODING 79
SWIDTH 480 0
DWIDTH 21 0
BBX 21 42 0 -6
BITMAP
000000
000000
000000
000000
000000
000000
000000
000000
00F800
030600
030600
060300
060300
060300
060300
060300
060300
060300
060300
060300
060300
060300
060300
060300
060300
060300
060300
060300
030600
030600
00F800
000000
000000
000000
000000
000000
000000
000000
000000
000000
000000
000000
ENDCHAR

STARTCHAR iso50
ENCODING 80
SWIDTH 480 0
DWIDTH 21 0
BBX 21 42 0 -6
BITMAP
000000
000000
000000
000000
000000
000000
000000
000000
07F800
030C00
030600
030300
030300
030300
030300
030300
030300
030600
030C00
03F800
030000
030000
030000
030000
030000
030000
030000
030000
030000
030000
078000
000000
000000
000000
000000
000000
000000
000000
000000
000000
000000
000000
ENDCHAR

STARTCHAR iso51
ENCODING 81
SWIDTH 480 0
DWIDTH 21 0
BBX 21 42 0 -6
BITMAP
000000
000000
000000
000000
000000
000000
000000
000000
00F800
030600
030600
060300
060300
060300
060300
060300
060300
060300
060300
060300
060300
060300
060300
060300
067300
068B00
068B00
068B00
038E00
038E00
007900
000F00
000600
000000
000000
000000
000000
000000
000000
000000
000000
000000
ENDCHAR

STARTCHAR iso52
ENCODING 82
SWIDTH 480 0
DWIDTH 21 0
BBX 21 42 0 -6
BITMAP
000000
000000
000000
000000
000000
000000
000000
000000
07F800
030C00
030600
030300
030300
030300
030300
030300
030300
030600
030C00
03F800
036000
036000
033000
033000
031800
031800
030C00
030C00
030600
030600
078780
000000
000000
000000
000000
000000
000000
000000
000000
000000
000000
000000
ENDCHAR

STARTCHAR iso53
ENCODING 83
SWIDTH 480 0
DWIDTH 21 0
BBX 21 42 0 -6
BITMAP
000000
000000
000000
000000
000000
000000
000000
000000
007900
018700
030300
060100
060100
060000
060000
060000
030000
01C000
00F000
003800
001C00
000C00
000600
000300
000300
000300
080300
0C0300
0C0600
0E1C00
09F000
000000
000000
000000
000000
000000
000000
000000
000000
000000
000000
000000
ENDCHAR

STARTCHAR iso54
ENCODING 84
SWIDTH 480 0
DWIDTH 21 0
BBX 21 42 0 -6
BITMAP
000000
000000
000000
000000
000000
000000
000000
000000
07FF80
063180
043080
043080
043080
003000
003000
003000
003000
003000
003000
003000
003000
003000
003000
003000
003000
003000
003000
003000
003000
003000
007800
000000
000000
000000
000000
000000
000000
000000
000000
000000
000000
000000
ENDCHAR

STARTCHAR iso55
ENCODING 85
SWIDTH 480 0
DWIDTH 21 0
BBX 21 42 0 -6
BITMAP
000000
000000
000000
000000
000000
000000
000000
000000
078380
030100
030100
030100
030100
030100
030100
030100
030100
030100
030100
030100
030100
030100
030100
030100
030100
030100
030100
030100
018200
00C400
007800
000000
000000
000000
000000
000000
000000
000000
000000
000000
000000
000000
ENDCHAR

STARTCHAR iso56
ENCODING 86
SWIDTH 480 0
DWIDTH 21 0
BBX 21 42 0 -6
BITMAP
000000
000000
000000
000000
000000
000000
000000
000000
078380
030100
030100
030100
030100
018200
018200
018200
018200
018200
00C400
00C400
00C400
00C400
00C400
006800
006800
006800
006800
003000
003000
003000
003000
000000
000000
000000
000000
000000
000000
000000
000000
000000
000000
000000
ENDCHAR

STARTCHAR iso57
ENCODING 87
SWIDTH 480 0
DWIDTH 21 0
BBX 21 42 0 -6
BITMAP
000000
000000
000000
000000
000000
000000
000000
000000
078380
030100
030100
030100
030100
031100
031100
031100
031100
031100
031100
019200
019200
01BA00
01BA00
01AA00
01AA00
01AA00
01AA00
01AA00
00CC00
00CC00
00CC00
000000
000000
000000
000000
000000
000000
000000
000000
000000
000000
000000
ENDCHAR

STARTCHAR iso58
ENCODING 88
SWIDTH 480 0
DWIDTH 21 0
BBX 21 42 0 -6
BITMAP
000000
000000
000000
000000
000000
000000
000000
000000
078700
030200
030200
030400
018400
018800
018800
00D000
00D000
00D000
007000
007000
003000
005800
005800
005800
008C00
008C00
010C00
010600
020600
020600
070F00
000000
000000
000000
000000
000000
000000
000000
000000
000000
000000
000000
ENDCHAR

STARTCHAR iso59
ENCODING 89
SWIDTH 480 0
DWIDTH 21 0
BBX 21 42 0 -6
BITMAP
000000
000000
000000
000000
000000
000000
000000
000000
078700
030200
030200
030600
018400
018400
018C00
00C800
00C800
00D800
005000
005000
007000
007000
003000
003000
003000
003000
003000
003000
003000
003000
007800
000000
000000
000000
000000
000000
000000
000000
000000
000000
000000
000000
ENDCHAR

STARTCHAR iso5A
ENCODING 90
SWIDTH 480 0
DWIDTH 21 0
BBX 21 42 0 -6
BITMAP
000000
000000
000000
000000
000000
000000
000000
000000
03FF00
030300
020300
020600
000600
000C00
000C00
000C00
001800
001800
001800
003000
006000
006000
006000
00C000
00C000
00C000
018000
018100
030100
030300
03FF00
000000
000000
000000
000000
000000
000000
000000
000000
000000
000000
000000
ENDCHAR

STARTCHAR iso5B
ENCODING 91
SWIDTH 480 0
DWIDTH 21 0
BBX 21 42 0 -6
BITMAP
000000
000000
000000
000000
000000
000000
000000
000000
007E00
006000
006000
006000
006000
006000
006000
006000
006000
006000
006000
006000
006000
006000
006000
006000
006000
006000
006000
006000
006000
006000
007E00
000000
000000
000000
000000
000000
000000
000000
000000
000000
000000
000000
ENDCHAR

STARTCHAR iso5C
ENCODING 92
SWIDTH 480 0
DWIDTH 21 0
BBX 21 42 0 -6
BITMAP
000000
000000
000000
000000
000000
000000
000000
000000
040000
060000
060000
030000
030000
018000
018000
00C000
00C000
006000
006000
003000
003000
001800
001800
000C00
000C00
000600
000600
000300
000300
000180
000180
000000
000000
000000
000000
000000
000000
000000
000000
000000
000000
000000
ENDCHAR

STARTCHAR iso5D
ENCODING 93
SWIDTH 480 0
DWIDTH 21 0
BBX 21 42 0 -6
BITMAP
000000
000000
000000
000000
000000
000000
000000
000000
01F800
001800
001800
001800
001800
001800
001800
001800
001800
001800
001800
001800
001800
001800
001800
001800
001800
001800
001800
001800
001800
001800
01F800
000000
000000
000000
000000
000000
000000
000000
000000
000000
000000
000000
ENDCHAR

STARTCHAR iso5E
ENCODING 94
SWIDTH 480 0
DWIDTH 21 0
BBX 21 42 0 -6
BITMAP
000000
000000
000000
000000
000000
000000
000000
002000
007000
00D800
018C00
030600
000000
000000
000000
000000
000000
000000
000000
000000
000000
000000
000000
000000
000000
000000
000000
000000
000000
000000
000000
000000
000000
000000
000000
000000
000000
000000
000000
000000
000000
000000
ENDCHAR

STARTCHAR iso5F
ENCODING 95
SWIDTH 480 0
DWIDTH 21 0
BBX 21 42 0 -6
BITMAP
000000
000000
000000
000000
000000
000000
000000
000000
000000
000000
000000
000000
000000
000000
000000
000000
000000
000000
000000
000000
000000
000000
000000
000000
000000
000000
000000
000000
000000
000000
000000
000000
000000
000000
1FFFC0
000000
000000
000000
000000
000000
000000
000000
ENDCHAR

STARTCHAR iso60
ENCODING 96
SWIDTH 480 0
DWIDTH 21 0
BBX 21 42 0 -6
BITMAP
000000
000000
000000
000000
000000
000000
000000
000600
000C00
000C00
001E00
000C00
000000
000000
000000
000000
000000
000000
000000
000000
000000
000000
000000
000000
000000
000000
000000
000000
000000
000000
000000
000000
000000
000000
000000
000000
000000
000000
000000
000000
000000
000000
ENDCHAR

STARTCHAR iso61
ENCODING 97
SWIDTH 480 0
DWIDTH 21 0
BBX 21 42 0 -6
BITMAP
000000
000000
000000
000000
000000
000000
000000
000000
000000
000000
000000
000000
000000
000000
000000
000000
01F800
020400
060600
060600
000600
000600
01F600
030E00
060600
060600
060600
060600
060600
030E80
01F300
000000
000000
000000
000000
000000
000000
000000
000000
000000
000000
000000
ENDCHAR

STARTCHAR iso62
ENCODING 98
SWIDTH 480 0
DWIDTH 21 0
BBX 21 42 0 -6
BITMAP
000000
000000
000000
000000
000000
000000
000000
000000
018000
038000
018000
018000
018000
018000
018000
018000
01B800
01CC00
018600
018300
018300
018300
018300
018300
018300
018300
018300
018300
018600
01CC00
013800
000000
000000
000000
000000
000000
000000
000000
000000
000000
000000
000000
ENDCHAR

STARTCHAR iso63
ENCODING 99
SWIDTH 480 0
DWIDTH 21 0
BBX 21 42 0 -6
BITMAP
000000
000000
000000
000000
000000
000000
000000
000000
000000
000000
000000
000000
000000
000000
000000
000000
007800
018600
018100
030300
030300
030000
030000
030000
030000
030000
030000
030100
018100
018600
007800
000000
000000
000000
000000
000000
000000
000000
000000
000000
000000
000000
ENDCHAR

STARTCHAR iso64
ENCODING 100
SWIDTH 480 0
DWIDTH 21 0
BBX 21 42 0 -6
BITMAP
000000
000000
000000
000000
000000
000000
000000
000000
000600
000E00
000600
000600
000600
000600
000600
000600
007600
018E00
018600
030600
030600
030600
030600
030600
030600
030600
030600
030600
030600
018E00
007700
000000
000000
000000
000000
000000
000000
000000
000000
000000
000000
000000
ENDCHAR

STARTCHAR iso65
ENCODING 101
SWIDTH 480 0
DWIDTH 21 0
BBX 21 42 0 -6
BITMAP
000000
000000
000000
000000
000000
000000
000000
000000
000000
000000
000000
000000
000000
000000
000000
000000
000000
00F800
010400
030600
030600
060300
060300
07FF00
060000
060000
060000
030100
030100
010600
00F800
000000
000000
000000
000000
000000
000000
000000
000000
000000
000000
000000
ENDCHAR

STARTCHAR iso66
ENCODING 102
SWIDTH 480 0
DWIDTH 21 0
BBX 21 42 0 -6
BITMAP
000000
000000
000000
000000
000000
000000
000000
000000
001C00
003600
003600
003000
003000
003000
003000
003000
03FF00
003000
003000
003000
003000
003000
003000
003000
003000
003000
003000
003000
003000
003000
00FC00
000000
000000
000000
000000
000000
000000
000000
000000
000000
000000
000000
ENDCHAR

STARTCHAR iso67
ENCODING 103
SWIDTH 480 0
DWIDTH 21 0
BBX 21 42 0 -6
BITMAP
000000
000000
000000
000000
000000
000000
000000
000000
000000
000000
000000
000000
000000
000000
000000
000000
007700
018D00
030600
030600
030600
018C00
00F000
010000
01F800
00FE00
030700
060300
060300
060300
060300
030600
00F800
000000
000000
000000
000000
000000
000000
000000
000000
000000
ENDCHAR

STARTCHAR iso68
ENCODING 104
SWIDTH 480 0
DWIDTH 21 0
BBX 21 42 0 -6
BITMAP
000000
000000
000000
000000
000000
000000
000000
000000
018000
038000
018000
018000
018000
018000
018000
018000
01BC00
01C300
018300
018300
018300
018300
018300
018300
018300
018300
018300
018300
018300
018300
03C780
000000
000000
000000
000000
000000
000000
000000
000000
000000
000000
000000
ENDCHAR

STARTCHAR iso69
ENCODING 105
SWIDTH 480 0
DWIDTH 21 0
BBX 21 42 0 -6
BITMAP
000000
000000
000000
000000
000000
000000
000000
000000
000000
000000
003000
007800
003000
000000
000000
000000
003000
00F000
003000
003000
003000
003000
003000
003000
003000
003000
003000
003000
003000
003000
007800
000000
000000
000000
000000
000000
000000
000000
000000
000000
000000
000000
ENDCHAR

STARTCHAR iso6A
ENCODING 106
SWIDTH 480 0
DWIDTH 21 0
BBX 21 42 0 -6
BITMAP
000000
000000
000000
000000
000000
000000
000000
000000
000000
000000
000C00
001E00
000C00
000000
000000
000000
000C00
003C00
000C00
000C00
000C00
000C00
000C00
000C00
000C00
000C00
000C00
000C00
000C00
000C00
018C00
018C00
008800
007000
000000
000000
000000
000000
000000
000000
000000
000000
ENDCHAR

STARTCHAR iso6B
ENCODING 107
SWIDTH 480 0
DWIDTH 21 0
BBX 21 42 0 -6
BITMAP
000000
000000
000000
000000
000000
000000
000000
000000
018000
038000
018000
018000
018000
018000
018000
018000
018F00
018600
018C00
019800
01B000
01F000
01F000
019800
019800
018C00
018C00
018600
018600
018300
03C780
000000
000000
000000
000000
000000
000000
000000
000000
000000
000000
000000
ENDCHAR

STARTCHAR iso6C
ENCODING 108
SWIDTH 480 0
DWIDTH 21 0
BBX 21 42 0 -6
BITMAP
000000
000000
000000
000000
000000
000000
000000
000000
003000
007000
003000
003000
003000
003000
003000
003000
003000
003000
003000
003000
003000
003000
003000
003000
003000
003000
003000
003000
003000
003000
00FC00
000000
000000
000000
000000
000000
000000
000000
000000
000000
000000
000000
ENDCHAR

STARTCHAR iso6D
ENCODING 109
SWIDTH 480 0
DWIDTH 21 0
BBX 21 42 0 -6
BITMAP
000000
000000
000000
000000
000000
000000
000000
000000
000000
000000
000000
000000
000000
000000
000000
000000
01EE00
073300
033300
033300
033300
033300
033300
033300
033300
033300
033300
033300
033300
033300
07B780
000000
000000
000000
000000
000000
000000
000000
000000
000000
000000
000000
ENDCHAR

STARTCHAR iso6E
ENCODING 110
SWIDTH 480 0
DWIDTH 21 0
BBX 21 42 0 -6
BITMAP
000000
000000
000000
000000
000000
000000
000000
000000
000000
000000
000000
000000
000000
000000
000000
000000
037C00
078600
030300
030300
030300
030300
030300
030300
030300
030300
030300
030300
030300
030300
078780
000000
000000
000000
000000
000000
000000
000000
000000
000000
000000
000000
ENDCHAR

STARTCHAR iso6F
ENCODING 111
SWIDTH 480 0
DWIDTH 21 0
BBX 21 42 0 -6
BITMAP
000000
000000
000000
000000
000000
000000
000000
000000
000000
000000
000000
000000
000000
000000
000000
000000
007800
018600
018600
030300
030300
030300
030300
030300
030300
030300
030300
030300
018600
018600
007800
000000
000000
000000
000000
000000
000000
000000
000000
000000
000000
000000
ENDCHAR

STARTCHAR iso70
ENCODING 112
SWIDTH 480 0
DWIDTH 21 0
BBX 21 42 0 -6
BITMAP
000000
000000
000000
000000
000000
000000
000000
000000
000000
000000
000000
000000
000000
000000
000000
000000
037800
078600
030600
030300
030300
030300
030300
030300
030300
030300
030300
030600
038600
037800
030000
030000
030000
078000
000000
000000
000000
000000
000000
000000
000000
000000
ENDCHAR

STARTCHAR iso71
ENCODING 113
SWIDTH 480 0
DWIDTH 21 0
BBX 21 42 0 -6
BITMAP
000000
000000
000000
000000
000000
000000
000000
000000
000000
000000
000000
000000
000000
000000
000000
000000
007980
018700
018300
030300
030300
030300
030300
030300
030300
030300
030300
030300
018300
018700
007B00
000300
000300
000780
000000
000000
000000
000000
000000
000000
000000
000000
ENDCHAR

STARTCHAR iso72
ENCODING 114
SWIDTH 480 0
DWIDTH 21 0
BBX 21 42 0 -6
BITMAP
000000
000000
000000
000000
000000
000000
000000
000000
000000
000000
000000
000000
000000
000000
000000
000000
019C00
03BE00
01C300
018300
018000
018000
018000
018000
018000
018000
018000
018000
018000
018000
03C000
000000
000000
000000
000000
000000
000000
000000
000000
000000
000000
000000
ENDCHAR

STARTCHAR iso73
ENCODING 115
SWIDTH 480 0
DWIDTH 21 0
BBX 21 42 0 -6
BITMAP
000000
000000
000000
000000
000000
000000
000000
000000
000000
000000
000000
000000
000000
000000
000000
000000
007900
018700
030300
030100
038000
01C000
00F000
003800
000E00
000300
000300
040300
060700
070E00
04F000
000000
000000
000000
000000
000000
000000
000000
000000
000000
000000
000000
ENDCHAR

STARTCHAR iso74
ENCODING 116
SWIDTH 480 0
DWIDTH 21 0
BBX 21 42 0 -6
BITMAP
000000
000000
000000
000000
000000
000000
000000
000000
000000
000000
000000
006000
006000
006000
006000
00E000
03FE00
006000
006000
006000
006000
006000
006000
006000
006000
006000
006000
006000
006200
006400
003800
000000
000000
000000
000000
000000
000000
000000
000000
000000
000000
000000
ENDCHAR

STARTCHAR iso75
ENCODING 117
SWIDTH 480 0
DWIDTH 21 0
BBX 21 42 0 -6
BITMAP
000000
000000
000000
000000
000000
000000
000000
000000
000000
000000
000000
000000
000000
000000
000000
000000
060600
0E0E00
060600
060600
060600
060600
060600
060600
060600
060600
060600
060600
060E00
061680
03E300
000000
000000
000000
000000
000000
000000
000000
000000
000000
000000
000000
ENDCHAR

STARTCHAR iso76
ENCODING 118
SWIDTH 480 0
DWIDTH 21 0
BBX 21 42 0 -6
BITMAP
000000
000000
000000
000000
000000
000000
000000
000000
000000
000000
000000
000000
000000
000000
000000
000000
078380
030100
030100
030100
018200
018200
018200
00C400
00C400
00C400
006800
006800
006800
003000
003000
000000
000000
000000
000000
000000
000000
000000
000000
000000
000000
000000
ENDCHAR

STARTCHAR iso77
ENCODING 119
SWIDTH 480 0
DWIDTH 21 0
BBX 21 42 0 -6
BITMAP
000000
000000
000000
000000
000000
000000
000000
000000
000000
000000
000000
000000
000000
000000
000000
000000
078380
031900
031900
031900
031900
01BB00
01AA00
01AA00
01AA00
01AA00
00EE00
00CC00
00CC00
00CC00
00CC00
000000
000000
000000
000000
000000
000000
000000
000000
000000
000000
000000
ENDCHAR

STARTCHAR iso78
ENCODING 120
SWIDTH 480 0
DWIDTH 21 0
BBX 21 42 0 -6
BITMAP
000000
000000
000000
000000
000000
000000
000000
000000
000000
000000
000000
000000
000000
000000
000000
000000
078300
030200
030400
018400
018800
00C800
00D000
007000
007000
009800
009800
010C00
010600
020600
060F00
000000
000000
000000
000000
000000
000000
000000
000000
000000
000000
000000
ENDCHAR

STARTCHAR iso79
ENCODING 121
SWIDTH 480 0
DWIDTH 21 0
BBX 21 42 0 -6
BITMAP
000000
000000
000000
000000
000000
000000
000000
000000
000000
000000
000000
000000
000000
000000
000000
000000
078380
030100
030200
030200
018400
018400
018400
018800
00C800
00C800
00D000
00D000
007000
007000
006000
062000
064000
018000
000000
000000
000000
000000
000000
000000
000000
000000
ENDCHAR

STARTCHAR iso7A
ENCODING 122
SWIDTH 480 0
DWIDTH 21 0
BBX 21 42 0 -6
BITMAP
000000
000000
000000
000000
000000
000000
000000
000000
000000
000000
000000
000000
000000
000000
000000
000000
03FF00
030300
020300
020600
000600
000C00
001800
003000
006000
00C000
018000
018100
030100
030300
03FF00
000000
000000
000000
000000
000000
000000
000000
000000
000000
000000
000000
ENDCHAR

STARTCHAR iso7B
ENCODING 123
SWIDTH 480 0
DWIDTH 21 0
BBX 21 42 0 -6
BITMAP
000000
000000
000000
000000
000000
000000
000000
000600
000800
000800
001800
001800
001800
001800
001800
001800
001800
001000
003000
006000
003000
001000
001800
001800
001800
001800
001800
001800
001800
000800
000800
000600
000000
000000
000000
000000
000000
000000
000000
000000
000000
000000
ENDCHAR

STARTCHAR iso7C
ENCODING 124
SWIDTH 480 0
DWIDTH 21 0
BBX 21 42 0 -6
BITMAP
000000
000000
000000
000000
000000
000000
000000
000000
003000
003000
003000
003000
003000
003000
003000
003000
003000
003000
003000
003000
003000
003000
003000
003000
003000
003000
003000
003000
003000
003000
003000
003000
000000
000000
000000
000000
000000
000000
000000
000000
000000
000000
ENDCHAR

STARTCHAR iso7D
ENCODING 125
SWIDTH 480 0
DWIDTH 21 0
BBX 21 42 0 -6
BITMAP
000000
000000
000000
000000
000000
000000
000000
030000
008000
008000
00C000
00C000
00C000
00C000
00C000
00C000
00C000
004000
006000
003000
006000
004000
00C000
00C000
00C000
00C000
00C000
00C000
00C000
008000
008000
030000
000000
000000
000000
000000
000000
000000
000000
000000
000000
000000
ENDCHAR

STARTCHAR iso7E
ENCODING 126
SWIDTH 480 0
DWIDTH 21 0
BBX 21 42 0 -6
BITMAP
000000
000000
000000
000000
000000
000000
000000
000000
000000
000000
000000
000000
000000
000000
000000
000000
000000
00E100
01F100
023E00
021C00
000000
000000
000000
000000
000000
000000
000000
000000
000000
000000
000000
000000
000000
000000
000000
000000
000000
000000
000000
000000
000000
ENDCHAR

STARTCHAR iso7F
ENCODING 127
SWIDTH 480 0
DWIDTH 21 0
BBX 21 42 0 -6
BITMAP
000000
000000
000000
000000
000000
000000
0CCCC0
0CCCC0
0CCCC0
0CCCC0
033300
033300
033300
033300
0CCCC0
0CCCC0
0CCCC0
0CCCC0
033300
033300
033300
033300
0CCCC0
0CCCC0
0CCCC0
0CCCC0
033300
033300
033300
033300
0CCCC0
0CCCC0
0CCCC0
0CCCC0
033300
033300
000000
000000
000000
000000
000000
000000
ENDCHAR

STARTCHAR iso80
ENCODING 128
SWIDTH 480 0
DWIDTH 21 0
BBX 21 42 0 -6
BITMAP
000000
000000
000000
000000
000000
000000
000000
000000
01C000
063000
0C1800
0C1800
063000
01C000
063000
0C1800
0C1800
063000
01C000
000000
001F00
003180
0060C0
0060C0
0060C0
0060C0
0060C0
0060C0
0060C0
003180
001F00
000000
000000
000000
000000
000000
000000
000000
000000
000000
000000
000000
ENDCHAR

STARTCHAR iso81
ENCODING 129
SWIDTH 480 0
DWIDTH 21 0
BBX 21 42 0 -6
BITMAP
000000
000000
000000
000000
000000
000000
000000
000000
01C000
063000
0C1800
0C1800
063000
01C000
063000
0C1800
0C1800
063000
01C000
000000
000600
000E00
001E00
000600
000600
000600
000600
000600
000600
000600
001F80
000000
000000
000000
000000
000000
000000
000000
000000
000000
000000
000000
ENDCHAR

STARTCHAR iso82
ENCODING 130
SWIDTH 480 0
DWIDTH 21 0
BBX 21 42 0 -6
BITMAP
000000
000000
000000
000000
000000
000000
000000
000000
01C000
063000
0C1800
0C1800
063000
01C000
063000
0C1800
0C1800
063000
01C000
000000
001F00
003180
0060C0
0060C0
003180
000300
000C00
003000
006040
007FC0
007FC0
000000
000000
000000
000000
000000
000000
000000
000000
000000
000000
000000
ENDCHAR

STARTCHAR iso83
ENCODING 131
SWIDTH 480 0
DWIDTH 21 0
BBX 21 42 0 -6
BITMAP
000000
000000
000000
000000
000000
000000
000000
000000
01C000
063000
0C1800
0C1800
063000
01C000
063000
0C1800
0C1800
063000
01C000
000000
001F00
003180
0060C0
0060C0
000180
001F00
000180
0060C0
0060C0
003180
001F00
000000
000000
000000
000000
000000
000000
000000
000000
000000
000000
000000
ENDCHAR

STARTCHAR iso84
ENCODING 132
SWIDTH 480 0
DWIDTH 21 0
BBX 21 42 0 -6
BITMAP
000000
000000
000000
000000
000000
000000
000000
000000
01C000
063000
0C1800
0C1800
063000
01C000
063000
0C1800
0C1800
063000
01C000
000000
000300
000700
000F00
001B00
003300
006300
006300
007F80
000300
000300
000780
000000
000000
000000
000000
000000
000000
000000
000000
000000
000000
000000
ENDCHAR

STARTCHAR iso85
ENCODING 133
SWIDTH 480 0
DWIDTH 21 0
BBX 21 42 0 -6
BITMAP
000000
000000
000000
000000
000000
000000
000000
000000
01C000
063000
0C1800
0C1800
063000
01C000
063000
0C1800
0C1800
063000
01C000
000000
007F80
007F00
004000
004000
005F00
006180
0040C0
0000C0
0040C0
002180
001E00
000000
000000
000000
000000
000000
000000
000000
000000
000000
000000
000000
ENDCHAR

STARTCHAR iso86
ENCODING 134
SWIDTH 480 0
DWIDTH 21 0
BBX 21 42 0 -6
BITMAP
000000
000000
000000
000000
000000
000000
000000
000000
01C000
063000
0C1800
0C1800
063000
01C000
063000
0C1800
0C1800
063000
01C000
000000
001F00
003180
0060C0
0060C0
006000
006F00
007180
0060C0
0060C0
003180
001F00
000000
000000
000000
000000
000000
000000
000000
000000
000000
000000
000000
ENDCHAR

STARTCHAR iso87
ENCODING 135
SWIDTH 480 0
DWIDTH 21 0
BBX 21 42 0 -6
BITMAP
000000
000000
000000
000000
000000
000000
000000
000000
01C000
063000
0C1800
0C1800
063000
01C000
063000
0C1800
0C1800
063000
01C000
000000
007FC0
007FC0
0040C0
000180
000300
000600
000400
000C00
000C00
000C00
000C00
000000
000000
000000
000000
000000
000000
000000
000000
000000
000000
000000
ENDCHAR

STARTCHAR iso88
ENCODING 136
SWIDTH 480 0
DWIDTH 21 0
BBX 21 42 0 -6
BITMAP
000000
000000
000000
000000
000000
000000
000000
000000
01C000
063000
0C1800
0C1800
063000
01C000
063000
0C1800
0C1800
063000
01C000
000000
000E00
003180
0060C0
0060C0
003180
000E00
003180
0060C0
0060C0
003180
000E00
000000
000000
000000
000000
000000
000000
000000
000000
000000
000000
000000
ENDCHAR

STARTCHAR iso89
ENCODING 137
SWIDTH 480 0
DWIDTH 21 0
BBX 21 42 0 -6
BITMAP
000000
000000
000000
000000
000000
000000
000000
000000
01C000
063000
0C1800
0C1800
063000
01C000
063000
0C1800
0C1800
063000
01C000
000000
001F00
003180
0060C0
0060C0
0031C0
001EC0
0000C0
0060C0
0060C0
002180
001F00
000000
000000
000000
000000
000000
000000
000000
000000
000000
000000
000000
ENDCHAR

STARTCHAR iso8A
ENCODING 138
SWIDTH 480 0
DWIDTH 21 0
BBX 21 42 0 -6
BITMAP
000000
000000
000000
000000
000000
000000
000000
000000
01C000
063000
0C1800
0C1800
063000
01C000
063000
0C1800
0C1800
063000
01C000
000000
000400
000E00
000E00
000E00
001300
001300
001300
003F80
002180
002180
0073C0
000000
000000
000000
000000
000000
000000
000000
000000
000000
000000
000000
ENDCHAR

STARTCHAR iso8B
ENCODING 139
SWIDTH 480 0
DWIDTH 21 0
BBX 21 42 0 -6
BITMAP
000000
000000
000000
000000
000000
000000
000000
000000
01C000
063000
0C1800
0C1800
063000
01C000
063000
0C1800
0C1800
063000
01C000
000000
007F00
003180
0030C0
0030C0
003080
003F00
003080
0030C0
0030C0
003180
007F00
000000
000000
000000
000000
000000
000000
000000
000000
000000
000000
000000
ENDCHAR

STARTCHAR iso8C
ENCODING 140
SWIDTH 480 0
DWIDTH 21 0
BBX 21 42 0 -6
BITMAP
000000
000000
000000
000000
000000
000000
000000
000000
01C000
063000
0C1800
0C1800
063000
01C000
063000
0C1800
0C1800
063000
01C000
000000
001E40
003140
0030C0
006040
006000
006000
006000
006040
003040
003080
001F00
000000
000000
000000
000000
000000
000000
000000
000000
000000
000000
000000
ENDCHAR

STARTCHAR iso8D
ENCODING 141
SWIDTH 480 0
DWIDTH 21 0
BBX 21 42 0 -6
BITMAP
000000
000000
000000
000000
000000
000000
000000
000000
01C000
063000
0C1800
0C1800
063000
01C000
063000
0C1800
0C1800
063000
01C000
000000
007F00
003180
0030C0
0030C0
0030C0
0030C0
0030C0
0030C0
0030C0
003180
007F00
000000
000000
000000
000000
000000
000000
000000
000000
000000
000000
000000
ENDCHAR

STARTCHAR iso8E
ENCODING 142
SWIDTH 480 0
DWIDTH 21 0
BBX 21 42 0 -6
BITMAP
000000
000000
000000
000000
000000
000000
000000
000000
01C000
063000
0C1800
0C1800
063000
01C000
063000
0C1800
0C1800
063000
01C000
000000
007FC0
0030C0
003040
003000
003100
003F00
003100
003000
003040
0030C0
007FC0
000000
000000
000000
000000
000000
000000
000000
000000
000000
000000
000000
ENDCHAR

STARTCHAR iso8F
ENCODING 143
SWIDTH 480 0
DWIDTH 21 0
BBX 21 42 0 -6
BITMAP
000000
000000
000000
000000
000000
000000
000000
000000
01C000
063000
0C1800
0C1800
063000
01C000
063000
0C1800
0C1800
063000
01C000
000000
007FC0
0030C0
003040
003000
003100
003F00
003100
003000
003000
003000
007800
000000
000000
000000
000000
000000
000000
000000
000000
000000
000000
000000
ENDCHAR

STARTCHAR iso90
ENCODING 144
SWIDTH 480 0
DWIDTH 21 0
BBX 21 42 0 -6
BITMAP
000000
000000
000000
000000
000000
000000
000000
000000
03E000
063000
0C1800
0C1800
063800
03D800
001800
0C1800
0C1800
043000
03E000
000000
001F00
003180
0060C0
0060C0
0060C0
0060C0
0060C0
0060C0
0060C0
003180
001F00
000000
000000
000000
000000
000000
000000
000000
000000
000000
000000
000000
ENDCHAR

STARTCHAR iso91
ENCODING 145
SWIDTH 480 0
DWIDTH 21 0
BBX 21 42 0 -6
BITMAP
000000
000000
000000
000000
000000
000000
000000
000000
03E000
063000
0C1800
0C1800
063800
03D800
001800
0C1800
0C1800
043000
03E000
000000
000600
000E00
001E00
000600
000600
000600
000600
000600
000600
000600
001F80
000000
000000
000000
000000
000000
000000
000000
000000
000000
000000
000000
ENDCHAR

STARTCHAR iso92
ENCODING 146
SWIDTH 480 0
DWIDTH 21 0
BBX 21 42 0 -6
BITMAP
000000
000000
000000
000000
000000
000000
000000
000000
03E000
063000
0C1800
0C1800
063800
03D800
001800
0C1800
0C1800
043000
03E000
000000
001F00
003180
0060C0
0060C0
003180
000300
000C00
003000
006040
007FC0
007FC0
000000
000000
000000
000000
000000
000000
000000
000000
000000
000000
000000
ENDCHAR

STARTCHAR iso93
ENCODING 147
SWIDTH 480 0
DWIDTH 21 0
BBX 21 42 0 -6
BITMAP
000000
000000
000000
000000
000000
000000
000000
000000
03E000
063000
0C1800
0C1800
063800
03D800
001800
0C1800
0C1800
043000
03E000
000000
001F00
003180
0060C0
0060C0
000180
001F00
000180
0060C0
0060C0
003180
001F00
000000
000000
000000
000000
000000
000000
000000
000000
000000
000000
000000
ENDCHAR

STARTCHAR iso94
ENCODING 148
SWIDTH 480 0
DWIDTH 21 0
BBX 21 42 0 -6
BITMAP
000000
000000
000000
000000
000000
000000
000000
000000
03E000
063000
0C1800
0C1800
063800
03D800
001800
0C1800
0C1800
043000
03E000
000000
000300
000700
000F00
001B00
003300
006300
006300
007F80
000300
000300
000780
000000
000000
000000
000000
000000
000000
000000
000000
000000
000000
000000
ENDCHAR

STARTCHAR iso95
ENCODING 149
SWIDTH 480 0
DWIDTH 21 0
BBX 21 42 0 -6
BITMAP
000000
000000
000000
000000
000000
000000
000000
000000
03E000
063000
0C1800
0C1800
063800
03D800
001800
0C1800
0C1800
043000
03E000
000000
007F80
007F00
004000
004000
005F00
006180
0040C0
0000C0
0040C0
002180
001E00
000000
000000
000000
000000
000000
000000
000000
000000
000000
000000
000000
ENDCHAR

STARTCHAR iso96
ENCODING 150
SWIDTH 480 0
DWIDTH 21 0
BBX 21 42 0 -6
BITMAP
000000
000000
000000
000000
000000
000000
000000
000000
03E000
063000
0C1800
0C1800
063800
03D800
001800
0C1800
0C1800
043000
03E000
000000
001F00
003180
0060C0
0060C0
006000
006F00
007180
0060C0
0060C0
003180
001F00
000000
000000
000000
000000
000000
000000
000000
000000
000000
000000
000000
ENDCHAR

STARTCHAR iso97
ENCODING 151
SWIDTH 480 0
DWIDTH 21 0
BBX 21 42 0 -6
BITMAP
000000
000000
000000
000000
000000
000000
000000
000000
03E000
063000
0C1800
0C1800
063800
03D800
001800
0C1800
0C1800
043000
03E000
000000
007FC0
007FC0
0040C0
000180
000300
000600
000400
000C00
000C00
000C00
000C00
000000
000000
000000
000000
000000
000000
000000
000000
000000
000000
000000
ENDCHAR

STARTCHAR iso98
ENCODING 152
SWIDTH 480 0
DWIDTH 21 0
BBX 21 42 0 -6
BITMAP
000000
000000
000000
000000
000000
000000
000000
000000
03E000
063000
0C1800
0C1800
063800
03D800
001800
0C1800
0C1800
043000
03E000
000000
000E00
003180
0060C0
0060C0
003180
000E00
003180
0060C0
0060C0
003180
000E00
000000
000000
000000
000000
000000
000000
000000
000000
000000
000000
000000
ENDCHAR

STARTCHAR iso99
ENCODING 153
SWIDTH 480 0
DWIDTH 21 0
BBX 21 42 0 -6
BITMAP
000000
000000
000000
000000
000000
000000
000000
000000
03E000
063000
0C1800
0C1800
063800
03D800
001800
0C1800
0C1800
043000
03E000
000000
001F00
003180
0060C0
0060C0
0031C0
001EC0
0000C0
0060C0
0060C0
002180
001F00
000000
000000
000000
000000
000000
000000
000000
000000
000000
000000
000000
ENDCHAR

STARTCHAR iso9A
ENCODING 154
SWIDTH 480 0
DWIDTH 21 0
BBX 21 42 0 -6
BITMAP
000000
000000
000000
000000
000000
000000
000000
000000
03E000
063000
0C1800
0C1800
063800
03D800
001800
0C1800
0C1800
043000
03E000
000000
000400
000E00
000E00
000E00
001300
001300
001300
003F80
002180
002180
0073C0
000000
000000
000000
000000
000000
000000
000000
000000
000000
000000
000000
ENDCHAR

STARTCHAR iso9B
ENCODING 155
SWIDTH 480 0
DWIDTH 21 0
BBX 21 42 0 -6
BITMAP
000000
000000
000000
000000
000000
000000
000000
000000
03E000
063000
0C1800
0C1800
063800
03D800
001800
0C1800
0C1800
043000
03E000
000000
007F00
003180
0030C0
0030C0
003080
003F00
003080
0030C0
0030C0
003180
007F00
000000
000000
000000
000000
000000
000000
000000
000000
000000
000000
000000
ENDCHAR

STARTCHAR iso9C
ENCODING 156
SWIDTH 480 0
DWIDTH 21 0
BBX 21 42 0 -6
BITMAP
000000
000000
000000
000000
000000
000000
000000
000000
03E000
063000
0C1800
0C1800
063800
03D800
001800
0C1800
0C1800
043000
03E000
000000
001E40
003140
0030C0
006040
006000
006000
006000
006040
003040
003080
001F00
000000
000000
000000
000000
000000
000000
000000
000000
000000
000000
000000
ENDCHAR

STARTCHAR iso9D
ENCODING 157
SWIDTH 480 0
DWIDTH 21 0
BBX 21 42 0 -6
BITMAP
000000
000000
000000
000000
000000
000000
000000
000000
03E000
063000
0C1800
0C1800
063800
03D800
001800
0C1800
0C1800
043000
03E000
000000
007F00
003180
0030C0
0030C0
0030C0
0030C0
0030C0
0030C0
0030C0
003180
007F00
000000
000000
000000
000000
000000
000000
000000
000000
000000
000000
000000
ENDCHAR

STARTCHAR iso9E
ENCODING 158
SWIDTH 480 0
DWIDTH 21 0
BBX 21 42 0 -6
BITMAP
000000
000000
000000
000000
000000
000000
000000
000000
03E000
063000
0C1800
0C1800
063800
03D800
001800
0C1800
0C1800
043000
03E000
000000
007FC0
0030C0
003040
003000
003100
003F00
003100
003000
003040
0030C0
007FC0
000000
000000
000000
000000
000000
000000
000000
000000
000000
000000
000000
ENDCHAR

STARTCHAR iso9F
ENCODING 159
SWIDTH 480 0
DWIDTH 21 0
BBX 21 42 0 -6
BITMAP
000000
000000
000000
000000
000000
000000
000000
000000
03E000
063000
0C1800
0C1800
063800
03D800
001800
0C1800
0C1800
043000
03E000
000000
007FC0
0030C0
003040
003000
003100
003F00
003100
003000
003000
003000
007C00
000000
000000
000000
000000
000000
000000
000000
000000
000000
000000
000000
ENDCHAR

STARTCHAR isoA0
ENCODING 160
SWIDTH 480 0
DWIDTH 21 0
BBX 21 42 0 -6
BITMAP
000000
000000
000000
000000
000000
000000
000000
000000
008000
01C000
01C000
01C000
026000
026000
026000
07F000
043000
043000
0E7800
000000
001F00
003180
0060C0
0060C0
0060C0
0060C0
0060C0
0060C0
0060C0
003180
001F00
000000
000000
000000
000000
000000
000000
000000
000000
000000
000000
000000
ENDCHAR

STARTCHAR isoA1
ENCODING 161
SWIDTH 480 0
DWIDTH 21 0
BBX 21 42 0 -6
BITMAP
000000
000000
000000
000000
000000
000000
000000
000000
008000
01C000
01C000
01C000
026000
026000
026000
07F000
043000
043000
0E7800
000000
000600
000E00
001E00
000600
000600
000600
000600
000600
000600
000600
001F80
000000
000000
000000
000000
000000
000000
000000
000000
000000
000000
000000
ENDCHAR

STARTCHAR isoA2
ENCODING 162
SWIDTH 480 0
DWIDTH 21 0
BBX 21 42 0 -6
BITMAP
000000
000000
000000
000000
000000
000000
000000
000000
008000
01C000
01C000
01C000
026000
026000
026000
07F000
043000
043000
0E7800
000000
001F00
003180
0060C0
0060C0
003180
000300
000C00
003000
006040
007FC0
007FC0
000000
000000
000000
000000
000000
000000
000000
000000
000000
000000
000000
ENDCHAR

STARTCHAR isoA3
ENCODING 163
SWIDTH 480 0
DWIDTH 21 0
BBX 21 42 0 -6
BITMAP
000000
000000
000000
000000
000000
000000
000000
000000
008000
01C000
01C000
01C000
026000
026000
026000
07F000
043000
043000
0E7800
000000
001F00
003180
0060C0
0060C0
000180
001F00
000180
0060C0
0060C0
003180
001F00
000000
000000
000000
000000
000000
000000
000000
000000
000000
000000
000000
ENDCHAR

STARTCHAR isoA4
ENCODING 164
SWIDTH 480 0
DWIDTH 21 0
BBX 21 42 0 -6
BITMAP
000000
000000
000000
000000
000000
000000
000000
000000
008000
01C000
01C000
01C000
026000
026000
026000
07F000
043000
043000
0E7800
000000
000300
000700
000F00
001B00
003300
006300
006300
007F80
000300
000300
000780
000000
000000
000000
000000
000000
000000
000000
000000
000000
000000
000000
ENDCHAR

STARTCHAR isoA5
ENCODING 165
SWIDTH 480 0
DWIDTH 21 0
BBX 21 42 0 -6
BITMAP
000000
000000
000000
000000
000000
000000
000000
000000
008000
01C000
01C000
01C000
026000
026000
026000
07F000
043000
043000
0E7800
000000
007F80
007F00
004000
004000
005F00
006180
0040C0
0000C0
0040C0
002180
001E00
000000
000000
000000
000000
000000
000000
000000
000000
000000
000000
000000
ENDCHAR

STARTCHAR isoA6
ENCODING 166
SWIDTH 480 0
DWIDTH 21 0
BBX 21 42 0 -6
BITMAP
000000
000000
000000
000000
000000
000000
000000
000000
008000
01C000
01C000
01C000
026000
026000
026000
07F000
043000
043000
0E7800
000000
001F00
003180
0060C0
0060C0
006000
006F00
007180
0060C0
0060C0
003180
001F00
000000
000000
000000
000000
000000
000000
000000
000000
000000
000000
000000
ENDCHAR

STARTCHAR isoA7
ENCODING 167
SWIDTH 480 0
DWIDTH 21 0
BBX 21 42 0 -6
BITMAP
000000
000000
000000
000000
000000
000000
000000
000000
008000
01C000
01C000
01C000
026000
026000
026000
07F000
043000
043000
0E7800
000000
007FC0
007FC0
0040C0
000180
000300
000600
000400
000C00
000C00
000C00
000C00
000000
000000
000000
000000
000000
000000
000000
000000
000000
000000
000000
ENDCHAR

STARTCHAR isoA8
ENCODING 168
SWIDTH 480 0
DWIDTH 21 0
BBX 21 42 0 -6
BITMAP
000000
000000
000000
000000
000000
000000
000000
000000
008000
01C000
01C000
01C000
026000
026000
026000
07F000
043000
043000
0E7800
000000
000E00
003180
0060C0
0060C0
003180
000E00
003180
0060C0
0060C0
003180
000E00
000000
000000
000000
000000
000000
000000
000000
000000
000000
000000
000000
ENDCHAR

STARTCHAR isoA9
ENCODING 169
SWIDTH 480 0
DWIDTH 21 0
BBX 21 42 0 -6
BITMAP
000000
000000
000000
000000
000000
000000
000000
000000
008000
01C000
01C000
01C000
026000
026000
026000
07F000
043000
043000
0E7800
000000
001F00
003180
0060C0
0060C0
0031C0
001EC0
0000C0
0060C0
0060C0
002180
001F00
000000
000000
000000
000000
000000
000000
000000
000000
000000
000000
000000
ENDCHAR

STARTCHAR isoAA
ENCODING 170
SWIDTH 480 0
DWIDTH 21 0
BBX 21 42 0 -6
BITMAP
000000
000000
000000
000000
000000
000000
000000
000000
008000
01C000
01C000
01C000
026000
026000
026000
07F000
043000
043000
0E7800
000000
000400
000E00
000E00
000E00
001300
001300
001300
003F80
002180
002180
0073C0
000000
000000
000000
000000
000000
000000
000000
000000
000000
000000
000000
ENDCHAR

STARTCHAR isoAB
ENCODING 171
SWIDTH 480 0
DWIDTH 21 0
BBX 21 42 0 -6
BITMAP
000000
000000
000000
000000
000000
000000
000000
000000
008000
01C000
01C000
01C000
026000
026000
026000
07F000
043000
043000
0E7800
000000
007F00
003180
0030C0
0030C0
003080
003F00
003080
0030C0
0030C0
003180
007F00
000000
000000
000000
000000
000000
000000
000000
000000
000000
000000
000000
ENDCHAR

STARTCHAR isoAC
ENCODING 172
SWIDTH 480 0
DWIDTH 21 0
BBX 21 42 0 -6
BITMAP
000000
000000
000000
000000
000000
000000
000000
000000
008000
01C000
01C000
01C000
026000
026000
026000
07F000
043000
043000
0E7800
000000
001E40
003140
0030C0
006040
006000
006000
006000
006040
003040
003080
001F00
000000
000000
000000
000000
000000
000000
000000
000000
000000
000000
000000
ENDCHAR

STARTCHAR isoAD
ENCODING 173
SWIDTH 480 0
DWIDTH 21 0
BBX 21 42 0 -6
BITMAP
000000
000000
000000
000000
000000
000000
000000
000000
008000
01C000
01C000
01C000
026000
026000
026000
07F000
043000
043000
0E7800
000000
007F00
003180
0030C0
0030C0
0030C0
0030C0
0030C0
0030C0
003080
003180
007F00
000000
000000
000000
000000
000000
000000
000000
000000
000000
000000
000000
ENDCHAR

STARTCHAR isoAE
ENCODING 174
SWIDTH 480 0
DWIDTH 21 0
BBX 21 42 0 -6
BITMAP
000000
000000
000000
000000
000000
000000
000000
000000
008000
01C000
01C000
01C000
026000
026000
026000
07F000
043000
043000
0E7800
000000
007FC0
0030C0
003040
003000
003100
003F00
003100
003000
003040
0030C0
007FC0
000000
000000
000000
000000
000000
000000
000000
000000
000000
000000
000000
ENDCHAR

STARTCHAR isoAF
ENCODING 175
SWIDTH 480 0
DWIDTH 21 0
BBX 21 42 0 -6
BITMAP
000000
000000
000000
000000
000000
000000
000000
000000
008000
01C000
01C000
01C000
026000
026000
026000
07F000
043000
043000
0E7800
000000
007FC0
0030C0
003040
003000
003100
003F00
003100
003000
003000
003000
007800
000000
000000
000000
000000
000000
000000
000000
000000
000000
000000
000000
ENDCHAR

STARTCHAR isoB0
ENCODING 176
SWIDTH 480 0
DWIDTH 21 0
BBX 21 42 0 -6
BITMAP
000000
000000
000000
000000
000000
000000
000000
000000
0FE000
063000
061800
061800
063000
07E000
063000
061800
061800
063000
0FE000
000000
001F00
003180
0060C0
0060C0
0060C0
0060C0
0060C0
0060C0
0060C0
003180
001F00
000000
000000
000000
000000
000000
000000
000000
000000
000000
000000
000000
ENDCHAR

STARTCHAR isoB1
ENCODING 177
SWIDTH 480 0
DWIDTH 21 0
BBX 21 42 0 -6
BITMAP
000000
000000
000000
000000
000000
000000
000000
000000
0FE000
063000
061800
061800
063000
07E000
063000
061800
061800
063000
0FE000
000000
000600
000E00
001E00
000600
000600
000600
000600
000600
000600
000600
001F80
000000
000000
000000
000000
000000
000000
000000
000000
000000
000000
000000
ENDCHAR

STARTCHAR isoB2
ENCODING 178
SWIDTH 480 0
DWIDTH 21 0
BBX 21 42 0 -6
BITMAP
000000
000000
000000
000000
000000
000000
000000
000000
0FE000
063000
061800
061800
063000
07E000
063000
061800
061800
063000
0FE000
000000
001F00
003180
0060C0
0060C0
003180
000300
000C00
003000
006040
007FC0
007FC0
000000
000000
000000
000000
000000
000000
000000
000000
000000
000000
000000
ENDCHAR

STARTCHAR isoB3
ENCODING 179
SWIDTH 480 0
DWIDTH 21 0
BBX 21 42 0 -6
BITMAP
000000
000000
000000
000000
000000
000000
000000
000000
0FE000
063000
061800
061800
063000
07E000
063000
061800
061800
063000
0FE000
000000
001F00
003180
0060C0
0060C0
000180
001F00
000180
0060C0
0060C0
003180
001F00
000000
000000
000000
000000
000000
000000
000000
000000
000000
000000
000000
ENDCHAR

STARTCHAR isoB4
ENCODING 180
SWIDTH 480 0
DWIDTH 21 0
BBX 21 42 0 -6
BITMAP
000000
000000
000000
000000
000000
000000
000000
000000
0FE000
063000
061800
061800
063000
07E000
063000
061800
061800
063000
0FE000
000000
000300
000700
000F00
001B00
003300
006300
006300
007F80
000300
000300
000780
000000
000000
000000
000000
000000
000000
000000
000000
000000
000000
000000
ENDCHAR

STARTCHAR isoB5
ENCODING 181
SWIDTH 480 0
DWIDTH 21 0
BBX 21 42 0 -6
BITMAP
000000
000000
000000
000000
000000
000000
000000
000000
0FE000
063000
061800
061800
063000
07E000
063000
061800
061800
063000
0FE000
000000
007F80
007F00
004000
004000
005F00
006180
0040C0
0000C0
0040C0
002180
001E00
000000
000000
000000
000000
000000
000000
000000
000000
000000
000000
000000
ENDCHAR

STARTCHAR isoB6
ENCODING 182
SWIDTH 480 0
DWIDTH 21 0
BBX 21 42 0 -6
BITMAP
000000
000000
000000
000000
000000
000000
000000
000000
0FE000
063000
061800
061800
063000
07E000
063000
061800
061800
063000
0FE000
000000
001F00
003180
0060C0
0060C0
006000
006F00
007180
0060C0
0060C0
003180
001F00
000000
000000
000000
000000
000000
000000
000000
000000
000000
000000
000000
ENDCHAR

STARTCHAR isoB7
ENCODING 183
SWIDTH 480 0
DWIDTH 21 0
BBX 21 42 0 -6
BITMAP
000000
000000
000000
000000
000000
000000
000000
000000
0FE000
063000
061800
061800
063000
07E000
063000
061800
061800
063000
0FE000
000000
007FC0
007FC0
0040C0
000180
000300
000600
000400
000C00
000C00
000C00
000C00
000000
000000
000000
000000
000000
000000
000000
000000
000000
000000
000000
ENDCHAR

STARTCHAR isoB8
ENCODING 184
SWIDTH 480 0
DWIDTH 21 0
BBX 21 42 0 -6
BITMAP
000000
000000
000000
000000
000000
000000
000000
000000
0FE000
063000
061800
061800
063000
07E000
063000
061800
061800
063000
0FE000
000000
000E00
003180
0060C0
0060C0
003180
000E00
003180
0060C0
0060C0
003180
000E00
000000
000000
000000
000000
000000
000000
000000
000000
000000
000000
000000
ENDCHAR

STARTCHAR isoB9
ENCODING 185
SWIDTH 480 0
DWIDTH 21 0
BBX 21 42 0 -6
BITMAP
000000
000000
000000
000000
000000
000000
000000
000000
0FE000
063000
061800
061800
063000
07E000
063000
061800
061800
063000
0FE000
000000
001F00
003180
0060C0
0060C0
0031C0
001EC0
0000C0
0060C0
0060C0
002180
001F00
000000
000000
000000
000000
000000
000000
000000
000000
000000
000000
000000
ENDCHAR

STARTCHAR isoBA
ENCODING 186
SWIDTH 480 0
DWIDTH 21 0
BBX 21 42 0 -6
BITMAP
000000
000000
000000
000000
000000
000000
000000
000000
0FE000
063000
061800
061800
063000
07E000
063000
061800
061800
063000
0FE000
000000
000400
000E00
000E00
000E00
001300
001300
001300
003F80
002180
002180
0073C0
000000
000000
000000
000000
000000
000000
000000
000000
000000
000000
000000
ENDCHAR

STARTCHAR isoBB
ENCODING 187
SWIDTH 480 0
DWIDTH 21 0
BBX 21 42 0 -6
BITMAP
000000
000000
000000
000000
000000
000000
000000
000000
0FE000
063000
061800
061800
063000
07E000
063000
061800
061800
063000
0FE000
000000
007F00
003180
0030C0
0030C0
003080
003F00
003080
0030C0
0030C0
003180
007F00
000000
000000
000000
000000
000000
000000
000000
000000
000000
000000
000000
ENDCHAR

STARTCHAR isoBC
ENCODING 188
SWIDTH 480 0
DWIDTH 21 0
BBX 21 42 0 -6
BITMAP
000000
000000
000000
000000
000000
000000
000000
000000
0FE000
063000
061800
061800
063000
07E000
063000
061800
061800
063000
0FE000
000000
001E40
003140
0030C0
006040
006000
006000
006000
006040
003040
003080
001F00
000000
000000
000000
000000
000000
000000
000000
000000
000000
000000
000000
ENDCHAR

STARTCHAR isoBD
ENCODING 189
SWIDTH 480 0
DWIDTH 21 0
BBX 21 42 0 -6
BITMAP
000000
000000
000000
000000
000000
000000
000000
000000
0FE000
063000
061800
061800
063000
07E000
063000
061800
061800
063000
0FE000
000000
007F00
003180
0030C0
0030C0
0030C0
0030C0
0030C0
0030C0
003080
003180
007F00
000000
000000
000000
000000
000000
000000
000000
000000
000000
000000
000000
ENDCHAR

STARTCHAR isoBE
ENCODING 190
SWIDTH 480 0
DWIDTH 21 0
BBX 21 42 0 -6
BITMAP
000000
000000
000000
000000
000000
000000
000000
000000
0FE000
063000
061800
061800
063000
07E000
063000
061800
061800
063000
0FE000
000000
007FC0
0030C0
003040
003000
003100
003F00
003100
003000
003040
0030C0
007FC0
000000
000000
000000
000000
000000
000000
000000
000000
000000
000000
000000
ENDCHAR

STARTCHAR isoBF
ENCODING 191
SWIDTH 480 0
DWIDTH 21 0
BBX 21 42 0 -6
BITMAP
000000
000000
000000
000000
000000
000000
000000
000000
0FE000
063000
061800
061800
063000
07E000
063000
061800
061800
063000
0FE000
000000
007FC0
0030C0
003040
003000
003100
003F00
003100
003000
003000
003000
007800
000000
000000
000000
000000
000000
000000
000000
000000
000000
000000
000000
ENDCHAR

STARTCHAR isoC0
ENCODING 192
SWIDTH 480 0
DWIDTH 21 0
BBX 21 42 0 -6
BITMAP
000000
000000
000000
000000
000000
000000
000000
000000
01C800
032800
063800
0C0800
0C0000
0C0000
0C0000
0C0800
060800
031000
01E000
000000
001F00
003180
0060C0
0060C0
0060C0
0060C0
0060C0
0060C0
0060C0
003180
001F00
000000
000000
000000
000000
000000
000000
000000
000000
000000
000000
000000
ENDCHAR

STARTCHAR isoC1
ENCODING 193
SWIDTH 480 0
DWIDTH 21 0
BBX 21 42 0 -6
BITMAP
000000
000000
000000
000000
000000
000000
000000
000000
01C800
032800
063800
0C0800
0C0000
0C0000
0C0000
0C0800
060800
031000
01E000
000000
000600
000E00
001E00
000600
000600
000600
000600
000600
000600
000600
001F80
000000
000000
000000
000000
000000
000000
000000
000000
000000
000000
000000
ENDCHAR

STARTCHAR isoC2
ENCODING 194
SWIDTH 480 0
DWIDTH 21 0
BBX 21 42 0 -6
BITMAP
000000
000000
000000
000000
000000
000000
000000
000000
01C800
032800
063800
0C0800
0C0000
0C0000
0C0000
0C0800
060800
031000
01E000
000000
001F00
003180
0060C0
0060C0
003180
000300
000C00
003000
006040
007FC0
007FC0
000000
000000
000000
000000
000000
000000
000000
000000
000000
000000
000000
ENDCHAR

STARTCHAR isoC3
ENCODING 195
SWIDTH 480 0
DWIDTH 21 0
BBX 21 42 0 -6
BITMAP
000000
000000
000000
000000
000000
000000
000000
000000
01C800
032800
063800
0C0800
0C0000
0C0000
0C0000
0C0800
060800
031000
01E000
000000
001F00
003180
0060C0
0060C0
000180
001F00
000180
0060C0
0060C0
003180
001F00
000000
000000
000000
000000
000000
000000
000000
000000
000000
000000
000000
ENDCHAR

STARTCHAR isoC4
ENCODING 196
SWIDTH 480 0
DWIDTH 21 0
BBX 21 42 0 -6
BITMAP
000000
000000
000000
000000
000000
000000
000000
000000
01C800
032800
063800
0C0800
0C0000
0C0000
0C0000
0C0800
060800
031000
01E000
000000
000300
000700
000F00
001B00
003300
006300
006300
007F80
000300
000300
000780
000000
000000
000000
000000
000000
000000
000000
000000
000000
000000
000000
ENDCHAR

STARTCHAR isoC5
ENCODING 197
SWIDTH 480 0
DWIDTH 21 0
BBX 21 42 0 -6
BITMAP
000000
000000
000000
000000
000000
000000
000000
000000
01C800
032800
063800
0C0800
0C0000
0C0000
0C0000
0C0800
060800
031000
01E000
000000
007F80
007F00
004000
004000
005F00
006180
0040C0
0000C0
0040C0
002180
001E00
000000
000000
000000
000000
000000
000000
000000
000000
000000
000000
000000
ENDCHAR

STARTCHAR isoC6
ENCODING 198
SWIDTH 480 0
DWIDTH 21 0
BBX 21 42 0 -6
BITMAP
000000
000000
000000
000000
000000
000000
000000
000000
01C800
032800
063800
0C0800
0C0000
0C0000
0C0000
0C0800
060800
031000
01E000
000000
001F00
003180
0060C0
0060C0
006000
006F00
007180
0060C0
0060C0
003180
001F00
000000
000000
000000
000000
000000
000000
000000
000000
000000
000000
000000
ENDCHAR

STARTCHAR isoC7
ENCODING 199
SWIDTH 480 0
DWIDTH 21 0
BBX 21 42 0 -6
BITMAP
000000
000000
000000
000000
000000
000000
000000
000000
01C800
032800
063800
0C0800
0C0000
0C0000
0C0000
0C0800
060800
031000
01E000
000000
007FC0
007FC0
0040C0
000180
000300
000600
000400
000C00
000C00
000C00
000C00
000000
000000
000000
000000
000000
000000
000000
000000
000000
000000
000000
ENDCHAR

STARTCHAR isoC8
ENCODING 200
SWIDTH 480 0
DWIDTH 21 0
BBX 21 42 0 -6
BITMAP
000000
000000
000000
000000
000000
000000
000000
000000
01C800
032800
063800
0C0800
0C0000
0C0000
0C0000
0C0800
060800
031000
01E000
000000
000E00
003180
0060C0
0060C0
003180
000E00
003180
0060C0
0060C0
003180
000E00
000000
000000
000000
000000
000000
000000
000000
000000
000000
000000
000000
ENDCHAR

STARTCHAR isoC9
ENCODING 201
SWIDTH 480 0
DWIDTH 21 0
BBX 21 42 0 -6
BITMAP
000000
000000
000000
000000
000000
000000
000000
000000
01C800
032800
063800
0C0800
0C0000
0C0000
0C0000
0C0800
060800
031000
01E000
000000
001F00
003180
0060C0
0060C0
0031C0
001EC0
0000C0
0060C0
0060C0
002180
001F00
000000
000000
000000
000000
000000
000000
000000
000000
000000
000000
000000
ENDCHAR

STARTCHAR isoCA
ENCODING 202
SWIDTH 480 0
DWIDTH 21 0
BBX 21 42 0 -6
BITMAP
000000
000000
000000
000000
000000
000000
000000
000000
01C800
032800
063800
0C0800
0C0000
0C0000
0C0000
0C0800
060800
031000
01E000
000000
000400
000E00
000E00
000E00
001300
001300
001300
003F80
002180
002180
0073C0
000000
000000
000000
000000
000000
000000
000000
000000
000000
000000
000000
ENDCHAR

STARTCHAR isoCB
ENCODING 203
SWIDTH 480 0
DWIDTH 21 0
BBX 21 42 0 -6
BITMAP
000000
000000
000000
000000
000000
000000
000000
000000
01C800
032800
063800
0C0800
0C0000
0C0000
0C0000
0C0800
060800
031000
01E000
000000
007F00
003180
0030C0
0030C0
003080
003F00
003080
0030C0
0030C0
003180
007F00
000000
000000
000000
000000
000000
000000
000000
000000
000000
000000
000000
ENDCHAR

STARTCHAR isoCC
ENCODING 204
SWIDTH 480 0
DWIDTH 21 0
BBX 21 42 0 -6
BITMAP
000000
000000
000000
000000
000000
000000
000000
000000
01C800
032800
063800
0C0800
0C0000
0C0000
0C0000
0C0800
060800
031000
01E000
000000
001E40
003140
0030C0
006040
006000
006000
006000
006040
003040
003080
001F00
000000
000000
000000
000000
000000
000000
000000
000000
000000
000000
000000
ENDCHAR

STARTCHAR isoCD
ENCODING 205
SWIDTH 480 0
DWIDTH 21 0
BBX 21 42 0 -6
BITMAP
000000
000000
000000
000000
000000
000000
000000
000000
01C800
032800
063800
0C0800
0C0000
0C0000
0C0000
0C0800
060800
031000
01E000
000000
007F00
003180
0030C0
0030C0
0030C0
0030C0
0030C0
0030C0
003080
003180
007F00
000000
000000
000000
000000
000000
000000
000000
000000
000000
000000
000000
ENDCHAR

STARTCHAR isoCE
ENCODING 206
SWIDTH 480 0
DWIDTH 21 0
BBX 21 42 0 -6
BITMAP
000000
000000
000000
000000
000000
000000
000000
000000
01C800
032800
063800
0C0800
0C0000
0C0000
0C0000
0C0800
060800
031000
01E000
000000
007FC0
0030C0
003040
003000
003100
003F00
003100
003000
003040
0030C0
007FC0
000000
000000
000000
000000
000000
000000
000000
000000
000000
000000
000000
ENDCHAR

STARTCHAR isoCF
ENCODING 207
SWIDTH 480 0
DWIDTH 21 0
BBX 21 42 0 -6
BITMAP
000000
000000
000000
000000
000000
000000
000000
000000
01C800
032800
063800
0C0800
0C0000
0C0000
0C0000
0C0800
060800
031000
01E000
000000
007FC0
0030C0
003040
003000
003100
003F00
003100
003000
003000
003000
007800
000000
000000
000000
000000
000000
000000
000000
000000
000000
000000
000000
ENDCHAR

STARTCHAR isoD0
ENCODING 208
SWIDTH 480 0
DWIDTH 21 0
BBX 21 42 0 -6
BITMAP
000000
000000
000000
000000
000000
000000
000000
000000
0FE000
063000
061800
061800
061800
061800
061800
061800
061800
063000
0FE000
000000
001F00
003180
0060C0
0060C0
0060C0
0060C0
0060C0
0060C0
0060C0
003180
001F00
000000
000000
000000
000000
000000
000000
000000
000000
000000
000000
000000
ENDCHAR

STARTCHAR isoD1
ENCODING 209
SWIDTH 480 0
DWIDTH 21 0
BBX 21 42 0 -6
BITMAP
000000
000000
000000
000000
000000
000000
000000
000000
0FE000
063000
061800
061800
061800
061800
061800
061800
061800
063000
0FE000
000000
000600
000E00
001E00
000600
000600
000600
000600
000600
000600
000600
001F80
000000
000000
000000
000000
000000
000000
000000
000000
000000
000000
000000
ENDCHAR

STARTCHAR isoD2
ENCODING 210
SWIDTH 480 0
DWIDTH 21 0
BBX 21 42 0 -6
BITMAP
000000
000000
000000
000000
000000
000000
000000
000000
0FE000
063000
061800
061800
061800
061800
061800
061800
061800
063000
0FE000
000000
001F00
003180
0060C0
0060C0
003180
000300
000C00
003000
006040
007FC0
007FC0
000000
000000
000000
000000
000000
000000
000000
000000
000000
000000
000000
ENDCHAR

STARTCHAR isoD3
ENCODING 211
SWIDTH 480 0
DWIDTH 21 0
BBX 21 42 0 -6
BITMAP
000000
000000
000000
000000
000000
000000
000000
000000
0FE000
063000
061800
061800
061800
061800
061800
061800
061800
063000
0FE000
000000
001F00
003180
0060C0
0060C0
000180
001F00
000180
0060C0
0060C0
003180
001F00
000000
000000
000000
000000
000000
000000
000000
000000
000000
000000
000000
ENDCHAR

STARTCHAR isoD4
ENCODING 212
SWIDTH 480 0
DWIDTH 21 0
BBX 21 42 0 -6
BITMAP
000000
000000
000000
000000
000000
000000
000000
000000
0FE000
063000
061800
061800
061800
061800
061800
061800
061800
063000
0FE000
000000
000300
000700
000F00
001B00
003300
006300
006300
007F80
000300
000300
000780
000000
000000
000000
000000
000000
000000
000000
000000
000000
000000
000000
ENDCHAR

STARTCHAR isoD5
ENCODING 213
SWIDTH 480 0
DWIDTH 21 0
BBX 21 42 0 -6
BITMAP
000000
000000
000000
000000
000000
000000
000000
000000
0FE000
063000
061800
061800
061800
061800
061800
061800
061800
063000
0FE000
000000
007F80
007F00
004000
004000
005F00
006180
0040C0
0000C0
0040C0
002180
001E00
000000
000000
000000
000000
000000
000000
000000
000000
000000
000000
000000
ENDCHAR

STARTCHAR isoD6
ENCODING 214
SWIDTH 480 0
DWIDTH 21 0
BBX 21 42 0 -6
BITMAP
000000
000000
000000
000000
000000
000000
000000
000000
0FE000
063000
061800
061800
061800
061800
061800
061800
061800
063000
0FE000
000000
001F00
003180
0060C0
0060C0
006000
006F00
007180
0060C0
0060C0
003180
001F00
000000
000000
000000
000000
000000
000000
000000
000000
000000
000000
000000
ENDCHAR

STARTCHAR isoD7
ENCODING 215
SWIDTH 480 0
DWIDTH 21 0
BBX 21 42 0 -6
BITMAP
000000
000000
000000
000000
000000
000000
000000
000000
0FE000
063000
061800
061800
061800
061800
061800
061800
061800
063000
0FE000
000000
007FC0
007FC0
0040C0
000180
000300
000600
000400
000C00
000C00
000C00
000C00
000000
000000
000000
000000
000000
000000
000000
000000
000000
000000
000000
ENDCHAR

STARTCHAR isoD8
ENCODING 216
SWIDTH 480 0
DWIDTH 21 0
BBX 21 42 0 -6
BITMAP
000000
000000
000000
000000
000000
000000
000000
000000
0FE000
063000
061800
061800
061800
061800
061800
061800
061800
063000
0FE000
000000
000E00
003180
0060C0
0060C0
003180
000E00
003180
0060C0
0060C0
003180
000E00
000000
000000
000000
000000
000000
000000
000000
000000
000000
000000
000000
ENDCHAR

STARTCHAR isoD9
ENCODING 217
SWIDTH 480 0
DWIDTH 21 0
BBX 21 42 0 -6
BITMAP
000000
000000
000000
000000
000000
000000
000000
000000
0FE000
063000
061800
061800
061800
061800
061800
061800
061800
063000
0FE000
000000
001F00
003180
0060C0
0060C0
0031C0
001EC0
0000C0
0060C0
0060C0
002180
001F00
000000
000000
000000
000000
000000
000000
000000
000000
000000
000000
000000
ENDCHAR

STARTCHAR isoDA
ENCODING 218
SWIDTH 480 0
DWIDTH 21 0
BBX 21 42 0 -6
BITMAP
000000
000000
000000
000000
000000
000000
000000
000000
0FE000
063000
061800
061800
061800
061800
061800
061800
061800
063000
0FE000
000000
000400
000E00
000E00
000E00
001300
001300
001300
003F80
002180
002180
0073C0
000000
000000
000000
000000
000000
000000
000000
000000
000000
000000
000000
ENDCHAR

STARTCHAR isoDB
ENCODING 219
SWIDTH 480 0
DWIDTH 21 0
BBX 21 42 0 -6
BITMAP
000000
000000
000000
000000
000000
000000
000000
000000
0FE000
063000
061800
061800
061800
061800
061800
061800
061800
063000
0FE000
000000
007F00
003180
0030C0
0030C0
003080
003F00
003080
0030C0
0030C0
003180
007F00
000000
000000
000000
000000
000000
000000
000000
000000
000000
000000
000000
ENDCHAR

STARTCHAR isoDC
ENCODING 220
SWIDTH 480 0
DWIDTH 21 0
BBX 21 42 0 -6
BITMAP
000000
000000
000000
000000
000000
000000
000000
000000
0FE000
063000
061800
061800
061800
061800
061800
061800
061800
063000
0FE000
000000
001E40
003140
0030C0
006040
006000
006000
006000
006040
003040
003080
001F00
000000
000000
000000
000000
000000
000000
000000
000000
000000
000000
000000
ENDCHAR

STARTCHAR isoDD
ENCODING 221
SWIDTH 480 0
DWIDTH 21 0
BBX 21 42 0 -6
BITMAP
000000
000000
000000
000000
000000
000000
000000
000000
0FE000
063000
061800
061800
061800
061800
061800
061800
061800
063000
0FE000
000000
007F00
003180
0030C0
0030C0
0030C0
0030C0
0030C0
0030C0
003080
003180
007F00
000000
000000
000000
000000
000000
000000
000000
000000
000000
000000
000000
ENDCHAR

STARTCHAR isoDE
ENCODING 222
SWIDTH 480 0
DWIDTH 21 0
BBX 21 42 0 -6
BITMAP
000000
000000
000000
000000
000000
000000
000000
000000
0FE000
063000
061800
061800
061800
061800
061800
061800
061800
063000
0FE000
000000
007FC0
0030C0
003040
003000
003100
003F00
003100
003000
003040
0030C0
007FC0
000000
000000
000000
000000
000000
000000
000000
000000
000000
000000
000000
ENDCHAR

STARTCHAR isoDF
ENCODING 223
SWIDTH 480 0
DWIDTH 21 0
BBX 21 42 0 -6
BITMAP
000000
000000
000000
000000
000000
000000
000000
000000
0FE000
063000
061800
061800
061800
061800
061800
061800
061800
063000
0FE000
000000
007FC0
0030C0
003040
003000
003100
003F00
003100
003000
003000
003000
007800
000000
000000
000000
000000
000000
000000
000000
000000
000000
000000
000000
ENDCHAR

STARTCHAR isoE0
ENCODING 224
SWIDTH 480 0
DWIDTH 21 0
BBX 21 42 0 -6
BITMAP
000000
000000
000000
000000
000000
000000
000000
000000
0FF800
061800
060800
060000
062000
07E000
062000
060000
060800
061800
0FF800
000000
001F00
003180
0060C0
0060C0
0060C0
0060C0
0060C0
0060C0
0060C0
003180
001F00
000000
000000
000000
000000
000000
000000
000000
000000
000000
000000
000000
ENDCHAR

STARTCHAR isoE1
ENCODING 225
SWIDTH 480 0
DWIDTH 21 0
BBX 21 42 0 -6
BITMAP
000000
000000
000000
000000
000000
000000
000000
000000
0FF800
061800
060800
060000
062000
07E000
062000
060000
060800
061800
0FF800
000000
000600
000E00
001E00
000600
000600
000600
000600
000600
000600
000600
001F80
000000
000000
000000
000000
000000
000000
000000
000000
000000
000000
000000
ENDCHAR

STARTCHAR isoE2
ENCODING 226
SWIDTH 480 0
DWIDTH 21 0
BBX 21 42 0 -6
BITMAP
000000
000000
000000
000000
000000
000000
000000
000000
0FF800
061800
060800
060000
062000
07E000
062000
060000
060800
061800
0FF800
000000
001F00
003180
0060C0
0060C0
003180
000300
000C00
003000
006040
007FC0
007FC0
000000
000000
000000
000000
000000
000000
000000
000000
000000
000000
000000
ENDCHAR

STARTCHAR isoE3
ENCODING 227
SWIDTH 480 0
DWIDTH 21 0
BBX 21 42 0 -6
BITMAP
000000
000000
000000
000000
000000
000000
000000
000000
0FF800
061800
060800
060000
062000
07E000
062000
060000
060800
061800
0FF800
000000
001F00
003180
0060C0
0060C0
000180
001F00
000180
0060C0
0060C0
003180
001F00
000000
000000
000000
000000
000000
000000
000000
000000
000000
000000
000000
ENDCHAR

STARTCHAR isoE4
ENCODING 228
SWIDTH 480 0
DWIDTH 21 0
BBX 21 42 0 -6
BITMAP
000000
000000
000000
000000
000000
000000
000000
000000
0FF800
061800
060800
060000
062000
07E000
062000
060000
060800
061800
0FF800
000000
000300
000700
000F00
001B00
003300
006300
006300
007F80
000300
000300
000780
000000
000000
000000
000000
000000
000000
000000
000000
000000
000000
000000
ENDCHAR

STARTCHAR isoE5
ENCODING 229
SWIDTH 480 0
DWIDTH 21 0
BBX 21 42 0 -6
BITMAP
000000
000000
000000
000000
000000
000000
000000
000000
0FF800
061800
060800
060000
062000
07E000
062000
060000
060800
061800
0FF800
000000
007F80
007F00
004000
004000
005F00
006180
0040C0
0000C0
0040C0
002180
001E00
000000
000000
000000
000000
000000
000000
000000
000000
000000
000000
000000
ENDCHAR

STARTCHAR isoE6
ENCODING 230
SWIDTH 480 0
DWIDTH 21 0
BBX 21 42 0 -6
BITMAP
000000
000000
000000
000000
000000
000000
000000
000000
0FF800
061800
060800
060000
062000
07E000
062000
060000
060800
061800
0FF800
000000
001F00
003180
0060C0
0060C0
006000
006F00
007180
0060C0
0060C0
003180
001F00
000000
000000
000000
000000
000000
000000
000000
000000
000000
000000
000000
ENDCHAR

STARTCHAR isoE7
ENCODING 231
SWIDTH 480 0
DWIDTH 21 0
BBX 21 42 0 -6
BITMAP
000000
000000
000000
000000
000000
000000
000000
000000
0FF800
061800
060800
060000
062000
07E000
062000
060000
060800
061800
0FF800
000000
007FC0
007FC0
0040C0
000180
000300
000600
000400
000C00
000C00
000C00
000C00
000000
000000
000000
000000
000000
000000
000000
000000
000000
000000
000000
ENDCHAR

STARTCHAR isoE8
ENCODING 232
SWIDTH 480 0
DWIDTH 21 0
BBX 21 42 0 -6
BITMAP
000000
000000
000000
000000
000000
000000
000000
000000
0FF800
061800
060800
060000
062000
07E000
062000
060000
060800
061800
0FF800
000000
000E00
003180
0060C0
0060C0
003180
000E00
003180
0060C0
0060C0
003180
000E00
000000
000000
000000
000000
000000
000000
000000
000000
000000
000000
000000
ENDCHAR

STARTCHAR isoE9
ENCODING 233
SWIDTH 480 0
DWIDTH 21 0
BBX 21 42 0 -6
BITMAP
000000
000000
000000
000000
000000
000000
000000
000000
0FF800
061800
060800
060000
062000
07E000
062000
060000
060800
061800
0FF800
000000
001F00
003180
0060C0
0060C0
0031C0
001EC0
0000C0
0060C0
0060C0
002180
001F00
000000
000000
000000
000000
000000
000000
000000
000000
000000
000000
000000
ENDCHAR

STARTCHAR isoEA
ENCODING 234
SWIDTH 480 0
DWIDTH 21 0
BBX 21 42 0 -6
BITMAP
000000
000000
000000
000000
000000
000000
000000
000000
0FF800
061800
060800
060000
062000
07E000
062000
060000
060800
061800
0FF800
000000
000400
000E00
000E00
000E00
001300
001300
001300
003F80
002180
002180
0073C0
000000
000000
000000
000000
000000
000000
000000
000000
000000
000000
000000
ENDCHAR

STARTCHAR isoEB
ENCODING 235
SWIDTH 480 0
DWIDTH 21 0
BBX 21 42 0 -6
BITMAP
000000
000000
000000
000000
000000
000000
000000
000000
0FF800
061800
060800
060000
062000
07E000
062000
060000
060800
061800
0FF800
000000
007F00
003180
0030C0
0030C0
003080
003F00
003080
0030C0
0030C0
003180
007F00
000000
000000
000000
000000
000000
000000
000000
000000
000000
000000
000000
ENDCHAR

STARTCHAR isoEC
ENCODING 236
SWIDTH 480 0
DWIDTH 21 0
BBX 21 42 0 -6
BITMAP
000000
000000
000000
000000
000000
000000
000000
000000
0FF800
061800
060800
060000
062000
07E000
062000
060000
060800
061800
0FF800
000000
001E40
003140
0030C0
006040
006000
006000
006000
006040
003040
003080
001F00
000000
000000
000000
000000
000000
000000
000000
000000
000000
000000
000000
ENDCHAR

STARTCHAR isoED
ENCODING 237
SWIDTH 480 0
DWIDTH 21 0
BBX 21 42 0 -6
BITMAP
000000
000000
000000
000000
000000
000000
000000
000000
0FF800
061800
060800
060000
062000
07E000
062000
060000
060800
061800
0FF800
000000
007F00
003180
0030C0
0030C0
0030C0
0030C0
0030C0
0030C0
003080
003180
007F00
000000
000000
000000
000000
000000
000000
000000
000000
000000
000000
000000
ENDCHAR

STARTCHAR isoEE
ENCODING 238
SWIDTH 480 0
DWIDTH 21 0
BBX 21 42 0 -6
BITMAP
000000
000000
000000
000000
000000
000000
000000
000000
0FF800
061800
060800
060000
062000
07E000
062000
060000
060800
061800
0FF800
000000
007FC0
0030C0
003040
003000
003100
003F00
003100
003000
003040
0030C0
007FC0
000000
000000
000000
000000
000000
000000
000000
000000
000000
000000
000000
ENDCHAR

STARTCHAR isoEF
ENCODING 239
SWIDTH 480 0
DWIDTH 21 0
BBX 21 42 0 -6
BITMAP
000000
000000
000000
000000
000000
000000
000000
000000
0FF800
061800
060800
060000
062000
07E000
062000
060000
060800
061800
0FF800
000000
007FC0
0030C0
003040
003000
003100
003F00
003100
003000
003000
003000
007800
000000
000000
000000
000000
000000
000000
000000
000000
000000
000000
000000
ENDCHAR

STARTCHAR isoF0
ENCODING 240
SWIDTH 480 0
DWIDTH 21 0
BBX 21 42 0 -6
BITMAP
000000
000000
000000
000000
000000
000000
000000
000000
0FF800
061800
060800
060000
062000
07E000
062000
060000
060000
060000
0F0000
000000
001F00
003180
0060C0
0060C0
0060C0
0060C0
0060C0
0060C0
0060C0
003180
001F00
000000
000000
000000
000000
000000
000000
000000
000000
000000
000000
000000
ENDCHAR

STARTCHAR isoF1
ENCODING 241
SWIDTH 480 0
DWIDTH 21 0
BBX 21 42 0 -6
BITMAP
000000
000000
000000
000000
000000
000000
000000
000000
0FF800
061800
060800
060000
062000
07E000
062000
060000
060000
060000
0F0000
000000
000600
000E00
001E00
000600
000600
000600
000600
000600
000600
000600
001F00
000000
000000
000000
000000
000000
000000
000000
000000
000000
000000
000000
ENDCHAR

STARTCHAR isoF2
ENCODING 242
SWIDTH 480 0
DWIDTH 21 0
BBX 21 42 0 -6
BITMAP
000000
000000
000000
000000
000000
000000
000000
000000
0FF800
061800
060800
060000
062000
07E000
062000
060000
060000
060000
0F0000
000000
001F00
003180
0060C0
0060C0
003180
000300
000C00
003000
006040
007FC0
007FC0
000000
000000
000000
000000
000000
000000
000000
000000
000000
000000
000000
ENDCHAR

STARTCHAR isoF3
ENCODING 243
SWIDTH 480 0
DWIDTH 21 0
BBX 21 42 0 -6
BITMAP
000000
000000
000000
000000
000000
000000
000000
000000
0FF800
061800
060800
060000
062000
07E000
062000
060000
060000
060000
0F0000
000000
001F00
003180
0060C0
0060C0
000180
001F00
000180
0060C0
0060C0
003180
001F00
000000
000000
000000
000000
000000
000000
000000
000000
000000
000000
000000
ENDCHAR

STARTCHAR isoF4
ENCODING 244
SWIDTH 480 0
DWIDTH 21 0
BBX 21 42 0 -6
BITMAP
000000
000000
000000
000000
000000
000000
000000
000000
0FF800
061800
060800
060000
062000
07E000
062000
060000
060000
060000
0F0000
000000
000300
000700
000F00
001B00
003300
006300
006300
007F80
000300
000300
000780
000000
000000
000000
000000
000000
000000
000000
000000
000000
000000
000000
ENDCHAR

STARTCHAR isoF5
ENCODING 245
SWIDTH 480 0
DWIDTH 21 0
BBX 21 42 0 -6
BITMAP
000000
000000
000000
000000
000000
000000
000000
000000
0FF800
061800
060800
060000
062000
07E000
062000
060000
060000
060000
0F0000
000000
007F80
007F00
004000
004000
005F00
006180
0040C0
0000C0
0040C0
002180
001E00
000000
000000
000000
000000
000000
000000
000000
000000
000000
000000
000000
ENDCHAR

STARTCHAR isoF6
ENCODING 246
SWIDTH 480 0
DWIDTH 21 0
BBX 21 42 0 -6
BITMAP
000000
000000
000000
000000
000000
000000
000000
000000
0FF800
061800
060800
060000
062000
07E000
062000
060000
060000
060000
0F0000
000000
001F00
003180
0060C0
0060C0
006000
006F00
007180
0060C0
0060C0
003180
001F00
000000
000000
000000
000000
000000
000000
000000
000000
000000
000000
000000
ENDCHAR

STARTCHAR isoF7
ENCODING 247
SWIDTH 480 0
DWIDTH 21 0
BBX 21 42 0 -6
BITMAP
000000
000000
000000
000000
000000
000000
000000
000000
0FF800
061800
060800
060000
062000
07E000
062000
060000
060000
060000
0F0000
000000
007FC0
007FC0
0040C0
000180
000300
000600
000400
000C00
000C00
000C00
000C00
000000
000000
000000
000000
000000
000000
000000
000000
000000
000000
000000
ENDCHAR

STARTCHAR isoF8
ENCODING 248
SWIDTH 480 0
DWIDTH 21 0
BBX 21 42 0 -6
BITMAP
000000
000000
000000
000000
000000
000000
000000
000000
0FF800
061800
060800
060000
062000
07E000
062000
060000
060000
060000
0F0000
000000
000E00
003180
0060C0
0060C0
003180
000E00
003180
0060C0
0060C0
003180
000E00
000000
000000
000000
000000
000000
000000
000000
000000
000000
000000
000000
ENDCHAR

STARTCHAR isoF9
ENCODING 249
SWIDTH 480 0
DWIDTH 21 0
BBX 21 42 0 -6
BITMAP
000000
000000
000000
000000
000000
000000
000000
000000
0FF800
061800
060800
060000
062000
07E000
062000
060000
060000
060000
0F0000
000000
001F00
003180
0060C0
0060C0
0031C0
001EC0
0000C0
0060C0
0060C0
002180
001F00
000000
000000
000000
000000
000000
000000
000000
000000
000000
000000
000000
ENDCHAR

STARTCHAR isoFA
ENCODING 250
SWIDTH 480 0
DWIDTH 21 0
BBX 21 42 0 -6
BITMAP
000000
000000
000000
000000
000000
000000
000000
000000
0FF800
061800
060800
060000
062000
07E000
062000
060000
060000
060000
0F0000
000000
000400
000E00
000E00
000E00
001300
001300
001300
003F80
002180
002180
0073C0
000000
000000
000000
000000
000000
000000
000000
000000
000000
000000
000000
ENDCHAR

STARTCHAR isoFB
ENCODING 251
SWIDTH 480 0
DWIDTH 21 0
BBX 21 42 0 -6
BITMAP
000000
000000
000000
000000
000000
000000
000000
000000
0FF800
061800
060800
060000
062000
07E000
062000
060000
060000
060000
0F0000
000000
007F00
003180
0030C0
0030C0
003080
003F00
003080
0030C0
0030C0
003180
007F00
000000
000000
000000
000000
000000
000000
000000
000000
000000
000000
000000
ENDCHAR

STARTCHAR isoFC
ENCODING 252
SWIDTH 480 0
DWIDTH 21 0
BBX 21 42 0 -6
BITMAP
000000
000000
000000
000000
000000
000000
000000
000000
0FF800
061800
060800
060000
062000
07E000
062000
060000
060000
060000
0F0000
000000
001E40
003140
0030C0
006040
006000
006000
006000
006040
003040
003080
001F00
000000
000000
000000
000000
000000
000000
000000
000000
000000
000000
000000
ENDCHAR

STARTCHAR isoFD
ENCODING 253
SWIDTH 480 0
DWIDTH 21 0
BBX 21 42 0 -6
BITMAP
000000
000000
000000
000000
000000
000000
000000
000000
0FF800
061800
060800
060000
062000
07E000
062000
060000
060000
060000
0F0000
000000
007F00
003180
0030C0
0030C0
0030C0
0030C0
0030C0
0030C0
0030C0
003180
007F00
000000
000000
000000
000000
000000
000000
000000
000000
000000
000000
000000
ENDCHAR

STARTCHAR isoFE
ENCODING 254
SWIDTH 480 0
DWIDTH 21 0
BBX 21 42 0 -6
BITMAP
000000
000000
000000
000000
000000
000000
000000
000000
0FF800
061800
060800
060000
062000
07E000
062000
060000
060000
060000
0F0000
000000
007FC0
0030C0
003040
003000
003100
003F00
003100
003000
003040
0030C0
007FC0
000000
000000
000000
000000
000000
000000
000000
000000
000000
000000
000000
ENDCHAR

STARTCHAR isoFF
ENCODING 255
SWIDTH 480 0
DWIDTH 21 0
BBX 21 42 0 -6
BITMAP
000000
000000
000000
000000
000000
000000
000000
000000
0FF800
061800
060800
060000
062000
07E000
062000
060000
060000
060000
0F0000
000000
007FC0
0030C0
003040
003000
003100
003F00
003100
003000
003000
003000
007800
000000
000000
000000
000000
000000
000000
000000
000000
000000
000000
000000
ENDCHAR
ENDFONT
